<svg width="740" height="566" viewBox="0 0 740 566" fill="none" xmlns="http://www.w3.org/2000/svg">
<path fill-rule="evenodd" clip-rule="evenodd" d="M446.009 208.925C446.009 286.503 383.125 349.394 305.556 349.394C227.985 349.394 165.101 286.503 165.101 208.925C165.101 131.346 227.985 68.4542 305.556 68.4542C383.125 68.4542 446.009 131.346 446.009 208.925Z" fill="#245394"/>
<path fill-rule="evenodd" clip-rule="evenodd" d="M425.364 208.925C425.364 275.1 371.723 328.748 305.556 328.748C239.386 328.748 185.745 275.1 185.745 208.925C185.745 142.748 239.386 89.1012 305.556 89.1012C371.723 89.1012 425.364 142.748 425.364 208.925Z" fill="#FFFFFE"/>
<path fill-rule="evenodd" clip-rule="evenodd" d="M305.692 211.934H305.644C304.357 211.934 303.312 210.888 303.312 209.601V113.434C303.312 112.144 304.357 111.101 305.644 111.101H305.692C306.979 111.101 308.024 112.144 308.024 113.434V209.601C308.024 210.888 306.979 211.934 305.692 211.934Z" fill="#0C0A21"/>
<path fill-rule="evenodd" clip-rule="evenodd" d="M307.745 210.872L307.722 210.913C307.11 212.047 305.694 212.47 304.56 211.858L247.564 181.194C246.431 180.582 246.008 179.167 246.62 178.034L246.642 177.991C247.254 176.857 248.669 176.434 249.802 177.046L306.798 207.712C307.932 208.324 308.354 209.739 307.745 210.872Z" fill="#0C0A21"/>
<path fill-rule="evenodd" clip-rule="evenodd" d="M487.019 133.734C487.019 177.685 522.646 213.316 566.592 213.316C610.538 213.316 646.162 177.685 646.162 133.734C646.162 89.7829 610.538 54.1544 566.592 54.1544C522.646 54.1544 487.019 89.7829 487.019 133.734Z" fill="url(#paint0_linear_0_20)"/>
<path fill-rule="evenodd" clip-rule="evenodd" d="M506.28 133.734C506.28 167.048 533.281 194.053 566.592 194.053C599.9 194.053 626.903 167.048 626.903 133.734C626.903 100.422 599.9 73.4153 566.592 73.4153C533.281 73.4153 506.28 100.422 506.28 133.734Z" fill="#FFFFFE"/>
<path fill-rule="evenodd" clip-rule="evenodd" d="M523.512 133.734C523.512 157.529 542.8 176.818 566.592 176.818C590.384 176.818 609.671 157.529 609.671 133.734C609.671 109.939 590.384 90.6495 566.592 90.6495C542.8 90.6495 523.512 109.939 523.512 133.734Z" fill="url(#paint1_linear_0_20)"/>
<path fill-rule="evenodd" clip-rule="evenodd" d="M536.942 133.734C536.942 150.112 550.218 163.387 566.592 163.387C582.966 163.387 596.241 150.112 596.241 133.734C596.241 117.358 582.966 104.081 566.592 104.081C550.218 104.081 536.942 117.358 536.942 133.734Z" fill="#FFFFFE"/>
<path fill-rule="evenodd" clip-rule="evenodd" d="M552.907 133.734C552.907 141.292 559.034 147.42 566.592 147.42C574.149 147.42 580.276 141.292 580.276 133.734C580.276 126.175 574.149 120.048 566.592 120.048C559.034 120.048 552.907 126.175 552.907 133.734Z" fill="url(#paint2_linear_0_20)"/>
<path fill-rule="evenodd" clip-rule="evenodd" d="M652.356 305.756C668.073 301.008 683.24 300.528 687.73 282.215C691.285 267.725 677.803 255.989 688.776 245.057C695.377 238.478 706.433 233.72 707.843 223.601C709.313 213.059 695.471 208.065 696.705 197.97C697.723 189.628 708.929 187.802 704.782 177.564C701.103 168.482 692.582 167.059 686.238 169.681C677.754 173.186 677.943 181.295 672.759 187.529C669.299 191.691 663.37 188.582 657.592 188.547C651.837 188.513 644.628 189.849 640.105 192.903C625.419 202.819 639.9 218.617 638.664 232.965C637.469 246.835 617.446 240.821 608.747 252.129C598.586 265.338 609.624 284.914 622.083 293.326C630.381 298.93 641.733 308.965 652.356 305.756Z" fill="#B4B8C3"/>
<path fill-rule="evenodd" clip-rule="evenodd" d="M636.463 303.981L636.73 304.051C637.264 304.115 637.767 303.745 637.853 303.232C637.919 302.856 644.378 266.755 667.183 240.862C680.021 226.289 681.9 212.535 683.366 201.786C684.222 195.515 684.953 190.176 687.677 187.02C687.895 186.765 687.817 186.309 687.499 186.001C687.17 185.679 686.741 185.65 686.521 185.901C683.579 189.283 682.819 194.786 681.924 201.254C680.458 211.862 678.582 225.439 665.905 239.716C642.623 265.946 635.995 302.626 635.929 303.006C635.855 303.429 636.085 303.821 636.463 303.981Z" fill="#FFFFFE"/>
<path fill-rule="evenodd" clip-rule="evenodd" d="M666.039 239.969C666.4 240.178 666.835 240.119 667.059 239.813C667.306 239.478 667.205 238.971 666.831 238.679C661.107 234.195 656.648 224.798 659.296 218.256C659.608 217.484 659.982 216.661 660.37 215.798C662.216 211.722 664.468 206.739 662.501 202.359C661.536 200.215 659.625 198.393 656.847 196.931C656.411 196.704 655.945 196.823 655.802 197.196C655.66 197.57 655.89 198.026 656.331 198.285C658.73 199.539 660.255 200.971 661.039 202.704C662.715 206.437 660.581 211.116 658.838 214.942C658.436 215.823 658.056 216.667 657.732 217.451C654.687 224.913 659.682 235.024 665.934 239.897L666.039 239.969Z" fill="#FFFFFE"/>
<path fill-rule="evenodd" clip-rule="evenodd" d="M670.365 242.728C673.286 244.347 676.032 244.928 678.553 244.478C682.46 243.784 685.727 240.566 688.024 235.246C688.248 234.728 688.492 234.119 688.757 233.451C690.252 229.71 692.471 224.153 695.865 223.277C696.972 222.993 698.115 223.231 699.36 224.001C699.709 224.215 700.103 224.116 700.236 223.778C700.37 223.443 700.203 222.999 699.863 222.782L699.854 222.778C698.28 221.8 696.75 221.484 695.307 221.849C691.369 222.847 689.001 228.726 687.408 232.687C687.143 233.34 686.901 233.94 686.679 234.451C684.538 239.373 681.581 242.326 678.109 242.928C675.077 243.451 671.609 242.199 667.811 239.184C667.427 238.874 666.936 238.924 666.686 239.254C666.437 239.589 666.532 240.098 666.901 240.392C668.082 241.326 669.236 242.104 670.365 242.728Z" fill="#FFFFFE"/>
<path fill-rule="evenodd" clip-rule="evenodd" d="M636.264 286.918C637.348 287.415 638.494 287.723 639.691 287.788C640.216 287.815 640.67 287.433 640.703 286.93C640.736 286.429 640.358 286 639.816 285.967C633.552 285.599 628.367 276.211 627.257 271.07C626.797 268.934 627.232 266.174 627.696 263.273C628.505 258.147 629.339 252.903 625.413 249.614C624.998 249.234 624.366 249.262 624.013 249.616C623.653 249.973 623.698 250.544 624.119 250.891C627.238 253.494 626.47 258.273 625.723 262.932C625.23 266.006 624.76 268.93 625.292 271.392C626.288 276.026 630.357 284.213 636.264 286.918Z" fill="#FFFFFE"/>
<path fill-rule="evenodd" clip-rule="evenodd" d="M644.043 290.086C645.107 290.575 646.283 290.883 647.564 291.012C654.57 291.719 662.813 286.815 666.571 283.452C668.535 281.686 670.094 278.603 671.722 275.384C674.262 270.363 676.83 265.275 680.82 265.423C681.243 265.439 681.573 265.092 681.557 264.651C681.54 264.209 681.179 263.842 680.758 263.819C675.841 263.618 672.911 269.375 670.266 274.568C668.698 277.657 667.193 280.605 665.443 282.16C662.033 285.191 654.145 289.887 647.772 289.222C645.24 288.955 643.218 287.844 641.797 285.922C641.495 285.521 640.906 285.421 640.475 285.71C640.048 286.006 639.945 286.573 640.249 286.983C641.28 288.363 642.551 289.402 644.043 290.086Z" fill="#FFFFFE"/>
<path fill-rule="evenodd" clip-rule="evenodd" d="M143.748 472.116C129.973 463.245 94.5704 455.865 97.5249 435.175C100.036 417.578 133.716 410.206 124.43 392.444C118.937 381.939 113.201 373.267 116.847 358.546C120.818 342.509 146.403 343.452 150.936 328.325C154.829 315.331 140.958 300.832 153.33 289.41C164.314 279.271 183.39 287.704 188.879 298.384C195.744 311.737 183.585 322.333 185.244 335.166C186.302 343.337 194.217 344.064 199.855 348.411C205.253 352.573 210.899 359.15 212.987 365.596C219.263 384.963 198.512 393.522 191.831 408.83C185.643 423.007 205.107 425.563 206.02 438.834C207.008 453.155 189.819 465.952 176.204 469.555C166.762 472.056 152.283 477.613 143.748 472.116Z" fill="#245394"/>
<path fill-rule="evenodd" clip-rule="evenodd" d="M159.223 474.734L158.954 474.726C158.455 474.644 158.173 474.204 158.327 473.75C158.434 473.418 169.511 439.223 160.457 402.697C154.416 378.347 160.114 360.084 164.787 345.101C167.61 336.051 170.07 328.16 168.856 321.283C168.76 320.721 169.139 320.154 169.712 320.021C170.304 319.875 170.829 320.236 170.928 320.795C172.213 328.164 169.673 336.273 166.762 345.571C162.148 360.302 156.517 378.269 162.395 402.13C171.503 439.118 160.241 473.716 160.128 474.05C160.005 474.424 159.627 474.695 159.223 474.734Z" fill="#FFFFFE"/>
<path fill-rule="evenodd" clip-rule="evenodd" d="M162.122 402.331C161.635 402.368 161.214 402.068 161.144 401.612C161.064 401.111 161.442 400.608 161.986 400.489C170.24 398.697 179.752 390.91 180.81 382.078C180.937 381.017 181.035 379.853 181.138 378.629C181.631 372.76 182.253 365.395 186.795 361.53C189.016 359.643 191.969 358.811 195.514 359.017C196.065 359.052 196.438 359.518 196.35 360.056C196.264 360.596 195.775 360.974 195.204 360.976C192.16 360.799 189.829 361.438 188.039 362.955C184.189 366.23 183.6 373.119 183.13 378.608C183.023 379.855 182.918 381.039 182.791 382.12C181.575 392.142 171.213 400.366 162.27 402.309L162.122 402.331Z" fill="#FFFFFE"/>
<path fill-rule="evenodd" clip-rule="evenodd" d="M156.106 403.035C152.1 403.245 148.776 402.397 146.195 400.487C142.095 397.46 139.984 391.758 140.12 383.945C140.132 383.171 140.171 382.267 140.216 381.278C140.463 375.653 140.841 367.066 137.071 363.415C135.821 362.202 134.211 361.641 132.156 361.696C131.579 361.711 131.119 361.275 131.133 360.723C131.146 360.175 131.618 359.715 132.191 359.692H132.201C134.813 359.625 136.962 360.392 138.592 361.974C142.945 366.204 142.532 375.29 142.259 381.237C142.218 382.204 142.177 383.089 142.163 383.851C142.029 391.074 143.885 396.29 147.515 398.976C150.612 401.267 155.053 401.775 160.693 400.512C161.261 400.38 161.746 400.703 161.832 401.2C161.912 401.703 161.543 402.21 160.999 402.331C159.268 402.721 157.638 402.955 156.106 403.035Z" fill="#FFFFFE"/>
<path fill-rule="evenodd" clip-rule="evenodd" d="M167.162 460.196C165.978 460.307 164.82 460.235 163.721 459.933C163.237 459.8 163.007 459.325 163.212 458.87C163.415 458.416 163.957 458.151 164.456 458.288C170.137 459.855 178.949 453.274 182.319 449.132C183.725 447.401 184.696 444.812 185.723 442.06C187.569 437.14 189.484 432.019 194.356 430.504C194.886 430.315 195.381 430.584 195.488 431.046C195.599 431.508 195.274 432.011 194.763 432.169C190.924 433.366 189.184 437.997 187.513 442.444C186.425 445.342 185.401 448.069 183.787 450.05C180.764 453.765 173.517 459.603 167.162 460.196Z" fill="#FFFFFE"/>
<path fill-rule="evenodd" clip-rule="evenodd" d="M158.709 460.654C157.504 460.765 156.27 460.685 155.016 460.412C147.984 458.876 142.017 451.559 139.707 446.97C138.471 444.504 138.284 440.843 138.085 436.943C137.767 430.713 137.438 424.21 132.843 422.494C132.349 422.309 132.141 421.775 132.382 421.303C132.62 420.832 133.223 420.608 133.718 420.787C139.371 422.908 139.736 430.278 140.052 436.711C140.233 440.444 140.407 443.949 141.5 446.126C143.582 450.282 149.248 457.334 155.65 458.738C158.132 459.282 160.506 458.911 162.692 457.637C163.152 457.377 163.731 457.469 163.986 457.859C164.23 458.253 164.058 458.785 163.596 459.054C162.025 459.962 160.391 460.496 158.709 460.654Z" fill="#FFFFFE"/>
<path fill-rule="evenodd" clip-rule="evenodd" d="M630.474 411.038C624.575 402.249 605.464 388.807 612.511 377.292C618.506 367.497 640.37 371.746 639.407 358.834C638.838 351.195 637.656 344.583 643.587 336.785C650.047 328.288 664.981 335.398 671.541 327.585C677.177 320.875 672.66 308.723 682.924 305.115C692.034 301.914 701.191 311.799 701.713 319.54C702.368 329.218 692.443 332.39 690.143 340.427C688.677 345.544 693.186 348.002 695.418 352.023C697.555 355.873 699.22 361.222 698.809 365.579C697.576 378.674 683.076 378.438 675.194 385.807C667.895 392.633 678.787 399.132 675.933 407.239C672.851 415.986 659.38 419.175 650.381 417.828C644.142 416.894 634.131 416.483 630.474 411.038Z" fill="#0C0A21"/>
<path fill-rule="evenodd" clip-rule="evenodd" d="M638.984 416.553L638.826 416.479C638.551 416.302 638.496 415.97 638.703 415.74C638.853 415.569 654.176 398.122 658.155 374.138C660.803 358.148 668.858 348.774 675.465 341.082C679.456 336.438 682.934 332.386 683.975 327.996C684.061 327.639 684.431 327.398 684.805 327.466C685.193 327.532 685.412 327.881 685.328 328.236C684.205 332.936 680.622 337.097 676.516 341.867C670.008 349.423 662.07 358.639 659.448 374.298C655.385 398.569 639.849 416.208 639.695 416.378C639.526 416.569 639.233 416.633 638.984 416.553Z" fill="#FFFFFE"/>
<path fill-rule="evenodd" clip-rule="evenodd" d="M659.235 374.347C658.937 374.245 658.764 373.959 658.838 373.67C658.92 373.354 659.274 373.15 659.627 373.22C664.979 374.269 672.615 372.087 675.504 367.119C675.851 366.522 676.208 365.857 676.582 365.156C678.376 361.801 680.631 357.592 684.312 356.462C686.115 355.912 688.08 356.175 690.129 357.204C690.447 357.366 690.55 357.737 690.359 358.035C690.17 358.331 689.782 358.431 689.443 358.286C687.683 357.401 686.137 357.183 684.686 357.627C681.565 358.583 679.452 362.518 677.769 365.653C677.387 366.366 677.021 367.043 676.668 367.649C673.383 373.284 665.131 375.51 659.329 374.372L659.235 374.347Z" fill="#FFFFFE"/>
<path fill-rule="evenodd" clip-rule="evenodd" d="M655.488 373.224C653.057 372.323 651.303 370.97 650.26 369.175C648.603 366.331 648.811 362.409 650.891 357.807C651.096 357.353 651.35 356.826 651.63 356.251C653.215 352.978 655.637 347.98 654.338 344.85C653.905 343.811 653.094 343.066 651.86 342.573C651.515 342.433 651.353 342.058 651.502 341.733C651.652 341.413 652.049 341.259 652.393 341.392L652.402 341.396C653.966 342.023 655.046 343.029 655.607 344.384C657.108 348.008 654.537 353.292 652.853 356.75C652.58 357.312 652.33 357.828 652.127 358.275C650.199 362.526 649.965 366.095 651.431 368.618C652.681 370.768 655.184 372.208 658.853 372.904C659.224 372.97 659.43 373.286 659.352 373.602C659.272 373.92 658.923 374.126 658.569 374.06C657.442 373.846 656.416 373.569 655.488 373.224Z" fill="#FFFFFE"/>
<path fill-rule="evenodd" clip-rule="evenodd" d="M647.415 409.962C646.684 409.723 646.014 409.385 645.442 408.925C645.187 408.721 645.173 408.38 645.411 408.163C645.647 407.945 646.035 407.929 646.298 408.138C649.267 410.52 656.178 408.873 659.237 407.28C660.514 406.612 661.754 405.325 663.066 403.955C665.419 401.51 667.866 398.964 671.145 399.311C671.507 399.333 671.732 399.621 671.677 399.922C671.624 400.224 671.303 400.44 670.96 400.403C668.375 400.13 666.16 402.432 664.029 404.641C662.643 406.083 661.337 407.438 659.873 408.2C657.128 409.629 651.336 411.237 647.415 409.962Z" fill="#FFFFFE"/>
<path fill-rule="evenodd" clip-rule="evenodd" d="M642.284 408.068C641.538 407.826 640.828 407.463 640.153 406.98C636.375 404.267 634.71 398.401 634.515 395.087C634.412 393.308 635.239 391.089 636.118 388.723C637.524 384.947 638.992 381.007 636.707 378.811C636.461 378.575 636.475 378.206 636.738 377.986C636.999 377.768 637.416 377.791 637.662 378.023C640.473 380.729 638.804 385.193 637.344 389.091C636.496 391.352 635.703 393.475 635.794 395.046C635.964 398.044 637.52 403.676 640.959 406.148C642.292 407.107 643.795 407.495 645.419 407.3C645.758 407.263 646.078 407.467 646.127 407.762C646.172 408.058 645.934 408.329 645.591 408.37C644.427 408.508 643.321 408.405 642.284 408.068Z" fill="#FFFFFE"/>
<path fill-rule="evenodd" clip-rule="evenodd" d="M372.836 355.251C387.619 353.801 399.388 352.257 401.893 337.179C403.19 329.378 400.484 323.47 392.861 317.93C386.697 313.45 383.445 311.745 382.917 304.593C382.071 293.152 389.011 283 383.587 271.265C377.538 258.172 359.168 261.071 352.631 249.047C346.767 238.26 344.611 225.067 329.202 223.012C316.235 221.281 308.989 234.034 313.167 244.221C315.518 249.954 320.437 254.468 321.831 260.443C323.16 266.143 320.199 270.215 317.407 274.84C311.237 285.055 308.488 296.111 319.932 305.119C326.771 310.501 331.976 315.111 328.114 322.78C324.057 330.842 322.088 335.491 331.446 343.362C338.442 349.245 345.507 349.877 354.282 351.528C362.507 353.074 373.235 356.951 381.568 354.501L372.836 355.251Z" fill="#B4B8C3"/>
<path fill-rule="evenodd" clip-rule="evenodd" d="M369.344 346.733C370.748 345.546 371.765 344.24 372.38 342.828C375.025 336.733 369.917 329.501 365.287 322.947C362.952 319.647 360.727 316.493 359.836 313.949C357.401 307.018 357.23 301.125 359.255 292.222C361.663 281.665 359.429 276.877 351.736 268.546C345.256 261.515 338.945 253.893 337.844 247.092C337.762 246.562 337.154 246.197 336.491 246.273C335.83 246.345 335.358 246.835 335.446 247.363C336.629 254.599 343.166 262.462 349.861 269.681C357.314 277.704 359.353 282.029 357.084 292.076C355.368 299.665 354.842 306.378 357.748 314.575C358.704 317.287 361 320.513 363.396 323.887C367.876 330.181 372.824 337.136 370.457 342.592C369.547 344.698 367.609 346.466 364.531 348C364.026 348.265 363.798 348.746 364.045 349.093C364.289 349.44 364.903 349.514 365.414 349.257C366.952 348.487 368.264 347.645 369.344 346.733Z" fill="#FFFFFE"/>
<path fill-rule="evenodd" clip-rule="evenodd" d="M357.362 302.269C357.532 302.127 357.653 301.951 357.694 301.753C357.782 301.283 357.372 300.881 356.772 300.858C351.528 300.671 348.299 296.088 344.821 291.15C341.739 286.778 338.503 282.187 333.43 280.324C332.855 280.113 332.128 280.314 331.83 280.77C331.52 281.23 331.738 281.77 332.317 281.981C336.764 283.603 339.854 287.955 342.792 292.098C346.406 297.189 350.067 302.355 356.44 302.573C356.791 302.583 357.125 302.462 357.362 302.269Z" fill="#FFFFFE"/>
<path fill-rule="evenodd" clip-rule="evenodd" d="M359.573 316.014L359.807 315.739C360.499 314.538 360.866 313.478 361.224 312.448C361.798 310.79 362.299 309.353 364.075 307.698C365.018 306.821 366.034 306.088 367.018 305.38C369.081 303.871 371.214 302.339 372.477 299.56C374.28 295.587 374.953 290.417 374.471 284.139C374.403 283.265 374.134 282.014 373.85 280.681C373.444 278.766 372.678 275.176 373.208 274.478C373.526 274.059 373.425 273.513 372.945 273.271C372.473 273.028 371.822 273.125 371.479 273.521C370.428 274.692 370.873 277.191 371.725 281.125C372.003 282.41 372.261 283.624 372.327 284.408C372.658 288.577 372.602 294.482 370.481 299.158C369.43 301.495 367.693 302.747 365.673 304.205C364.634 304.955 363.558 305.739 362.503 306.712C360.355 308.704 359.741 310.491 359.144 312.214C358.813 313.174 358.47 314.17 357.852 315.24C357.6 315.678 357.834 316.148 358.376 316.285C358.784 316.39 359.261 316.271 359.573 316.014Z" fill="#FFFFFE"/>
<path fill-rule="evenodd" clip-rule="evenodd" d="M633.324 491.533C619.301 483.338 608.519 476.521 611.829 459.044C613.504 450.194 618.219 445.038 627.417 442.231C634.864 439.96 638.568 439.45 641.549 432.192C646.253 420.744 643.138 407.951 652.094 398.276C661.965 387.612 678.475 396.877 688.408 387.345C697.233 378.879 703.09 366.972 718.582 370.121C731.826 372.813 735.705 387.838 728.734 396.545C724.778 401.485 718.547 404.265 715.444 409.851C712.461 415.224 714.29 420.584 715.806 426.52C719.218 439.884 718.863 453.087 704.168 458.227C695.393 461.295 688.554 464.2 690.096 474.477C691.747 485.488 692.319 491.769 679.851 496.648C670.529 500.295 662.976 497.767 653.383 495.658C644.477 493.701 632.297 493.297 624.959 486.792L633.324 491.533Z" fill="#245394"/>
<path fill-rule="evenodd" clip-rule="evenodd" d="M639.912 483.418C638.943 481.465 638.407 479.551 638.309 477.701C637.894 469.796 645.487 464.003 652.334 458.779C655.775 456.161 659.052 453.66 660.793 451.276C665.515 444.822 667.626 438.621 668.542 428.477C669.599 416.674 673.287 412.631 683.361 407.033C691.831 402.317 700.286 396.962 703.345 390.598C703.581 390.103 704.281 389.955 704.909 390.263C705.538 390.569 705.862 391.22 705.624 391.713C702.359 398.5 693.598 404.031 684.844 408.869C675.077 414.259 671.722 417.914 670.714 429.165C669.94 437.814 668.262 445.169 662.653 452.808C660.789 455.356 657.416 457.913 653.882 460.592C647.263 465.611 639.916 471.18 640.298 478.274C640.444 481.036 641.738 483.884 644.269 486.989C644.68 487.514 644.737 488.163 644.364 488.449C643.992 488.736 643.351 488.545 642.928 488.024C641.666 486.463 640.66 484.927 639.912 483.418Z" fill="#FFFFFE"/>
<path fill-rule="evenodd" clip-rule="evenodd" d="M667.121 439.779C666.998 439.561 666.938 439.327 666.963 439.101C667.031 438.568 667.566 438.305 668.164 438.518C673.418 440.409 678.107 436.826 683.14 432.98C687.585 429.586 692.239 426.034 697.898 426.048C698.543 426.05 699.212 426.543 699.376 427.138C699.549 427.74 699.167 428.225 698.518 428.22C693.547 428.192 689.106 431.563 684.868 434.781C679.643 438.748 674.327 442.791 667.932 440.471C667.583 440.34 667.289 440.079 667.121 439.779Z" fill="#FFFFFE"/>
<path fill-rule="evenodd" clip-rule="evenodd" d="M660.358 453.617L660.216 453.223C659.937 451.639 659.931 450.348 659.925 449.093C659.916 447.081 659.904 445.342 658.713 442.863C658.085 441.559 657.338 440.377 656.615 439.237C655.114 436.832 653.56 434.391 653.274 431.001C652.87 426.192 653.95 420.627 656.486 414.422C656.837 413.559 657.502 412.395 658.208 411.159C659.218 409.378 661.111 406.06 660.834 405.171C660.666 404.637 660.937 404.13 661.471 404.062C661.998 403.99 662.585 404.321 662.785 404.84C663.409 406.391 662.179 408.734 660.091 412.389C659.407 413.584 658.762 414.717 658.444 415.489C656.757 419.611 654.853 425.693 655.336 431.354C655.574 434.204 656.839 436.198 658.321 438.528C659.085 439.732 659.877 440.993 660.588 442.446C662.035 445.432 662.046 447.592 662.058 449.687C662.064 450.859 662.072 452.075 662.325 453.488C662.429 454.065 662.037 454.477 661.452 454.403C661.011 454.348 660.58 454.023 660.358 453.617Z" fill="#FFFFFE"/>
<path fill-rule="evenodd" clip-rule="evenodd" d="M382.531 329.308C366.488 326.764 353.968 324.327 350.707 306.842C349.054 297.988 351.574 291.47 359.125 285.515C365.24 280.694 368.506 278.877 368.65 271.031C368.876 258.653 361.328 247.866 366.161 235.599C371.487 222.077 390.233 224.716 396.029 212.227C401.176 201.133 402.312 187.913 417.887 185.221C431.206 182.921 440.277 195.513 436.94 206.153C435.049 212.194 430.251 217.047 429.389 223.379C428.561 229.468 432.21 233.798 435.778 238.78C443.81 249.991 448.274 262.423 436.445 272.548C429.385 278.593 424.067 283.782 429.235 292.799C434.77 302.46 437.585 308.105 427.738 317.179C420.377 323.961 412.419 324.347 402.718 325.867C393.709 327.277 382.213 331.325 373.015 327.926L382.531 329.308Z" fill="#0C0A21"/>
<path fill-rule="evenodd" clip-rule="evenodd" d="M385.722 319.355C384.11 317.885 382.915 316.298 382.151 314.61C378.895 307.394 383.866 299.24 388.35 291.887C390.606 288.197 392.75 284.675 393.508 281.823C395.565 274.094 395.279 267.55 392.45 257.766C389.151 246.386 391.12 241.279 398.474 232.404C404.652 224.934 410.586 216.874 411.128 209.833C411.165 209.287 411.764 208.897 412.462 208.954C413.158 209.01 413.696 209.5 413.653 210.047C413.076 217.554 406.921 225.889 400.521 233.576C393.378 242.145 391.58 246.768 394.723 257.618C397.144 265.957 398.25 273.419 395.797 282.575C394.986 285.626 392.77 289.232 390.45 293.014C386.104 300.092 381.281 307.949 384.213 314.421C385.352 316.94 387.592 319.125 391.077 321.099C391.649 321.439 391.939 322.023 391.697 322.425C391.454 322.825 390.787 322.883 390.204 322.55C388.461 321.554 386.966 320.489 385.722 319.355Z" fill="#FFFFFE"/>
<path fill-rule="evenodd" clip-rule="evenodd" d="M395.23 268.813C395.037 268.655 394.896 268.458 394.836 268.238C394.707 267.716 395.111 267.277 395.746 267.258C401.326 267.113 404.393 262.072 407.689 256.661C410.596 251.885 413.643 246.882 418.92 244.843C419.521 244.609 420.326 244.827 420.694 245.322C421.075 245.819 420.893 246.41 420.289 246.64C415.645 248.42 412.731 253.172 409.951 257.71C406.523 263.306 403.038 269.002 396.236 269.162C395.863 269.168 395.497 269.03 395.23 268.813Z" fill="#FFFFFE"/>
<path fill-rule="evenodd" clip-rule="evenodd" d="M393.951 284.162L393.678 283.846C392.842 282.472 392.368 281.271 391.906 280.104C391.167 278.232 390.524 276.616 388.516 274.739C387.457 273.751 386.33 272.922 385.244 272.123C382.973 270.427 380.638 268.716 379.142 265.661C377.019 261.328 376.004 255.751 376.113 249.047C376.13 248.117 376.327 246.79 376.534 245.381C376.83 243.357 377.388 239.576 376.807 238.85C376.458 238.414 376.526 237.843 376.998 237.585C377.464 237.326 378.131 237.422 378.505 237.833C379.649 239.051 379.355 241.681 378.735 245.843C378.532 247.207 378.343 248.496 378.326 249.332C378.25 253.784 378.686 260.143 381.191 265.242C382.447 267.811 384.35 269.209 386.578 270.844C387.726 271.688 388.921 272.573 390.112 273.671C392.545 275.926 393.337 277.936 394.111 279.883C394.54 280.973 394.988 282.102 395.737 283.326C396.045 283.827 395.83 284.353 395.257 284.497C394.826 284.608 394.306 284.46 393.951 284.162Z" fill="#FFFFFE"/>
<path fill-rule="evenodd" clip-rule="evenodd" d="M102.28 497.983C82.2145 497.297 64.1363 501.484 53.0903 481.245C44.3499 465.231 56.6053 447.136 40.2128 437.654C30.3473 431.947 15.7883 429.789 10.9511 418.272C5.91259 406.272 20.7057 396.029 16.086 384.485C12.2671 374.945 -1.55068 376.298 0.143186 362.898C1.64405 351.008 11.2693 346.657 19.5908 347.768C30.7169 349.251 33.0349 358.893 41.1141 364.639C46.5078 368.473 52.5421 362.941 59.3627 361.089C66.1525 359.243 75.092 358.563 81.3952 360.754C101.861 367.871 89.6962 391.085 95.6524 407.656C101.412 423.676 123.192 410.29 137.018 420.929C153.166 433.356 146.255 459.954 134.168 473.802C126.113 483.028 115.839 498.447 102.28 497.983Z" fill="#B4B8C3"/>
<path fill-rule="evenodd" clip-rule="evenodd" d="M120.51 490.905L120.215 491.071C119.603 491.311 118.894 491.032 118.632 490.453C118.434 490.032 99.4878 449.385 64.4197 425.929C44.6785 412.728 38.1494 397.058 33.0473 384.814C30.0702 377.67 27.5345 371.588 23.3235 368.713C22.9867 368.479 22.9354 367.918 23.2146 367.452C23.5021 366.97 24.001 366.799 24.3398 367.027C28.8752 370.101 31.4992 376.368 34.583 383.731C39.642 395.812 46.1116 411.27 65.5715 424.173C101.309 447.878 120.635 489.155 120.833 489.584C121.052 490.061 120.904 490.597 120.51 490.905Z" fill="#FFFFFE"/>
<path fill-rule="evenodd" clip-rule="evenodd" d="M65.4914 424.512C65.1321 424.873 64.5983 424.941 64.2369 424.65C63.8406 424.331 63.7996 423.699 64.1507 423.237C69.5094 416.142 71.8357 403.639 66.6555 396.738C66.0457 395.922 65.3477 395.064 64.6167 394.167C61.1592 389.929 56.9338 384.744 57.8885 378.951C58.3566 376.115 60.0443 373.364 62.8695 370.764C63.313 370.358 63.9022 370.351 64.1876 370.75C64.471 371.148 64.3437 371.758 63.9043 372.202C61.461 374.436 60.1059 376.606 59.724 378.9C58.911 383.838 62.9023 388.701 66.1607 392.678C66.9101 393.59 67.6246 394.469 68.2529 395.294C74.1907 403.161 71.4558 416.676 65.594 424.395L65.4914 424.512Z" fill="#FFFFFE"/>
<path fill-rule="evenodd" clip-rule="evenodd" d="M61.2434 429.132C58.2951 431.96 55.2358 433.508 52.115 433.765C47.2778 434.169 42.4097 431.391 38.0262 425.824C37.5991 425.282 37.1187 424.635 36.5972 423.931C33.657 419.978 29.292 414.105 25.0071 414.134C23.6109 414.144 22.3338 414.785 21.1019 416.085C20.759 416.446 20.2622 416.452 19.9973 416.095C19.7345 415.742 19.792 415.165 20.1287 414.801L20.1349 414.793C21.6912 413.144 23.3994 412.292 25.2185 412.27C30.1872 412.214 34.8274 418.422 37.9523 422.604C38.4697 423.294 38.944 423.927 39.3649 424.461C43.4404 429.609 47.8609 432.171 52.152 431.795C55.899 431.465 59.605 428.896 63.1508 424.14C63.5081 423.656 64.1035 423.559 64.5038 423.871C64.9022 424.19 64.9494 424.82 64.6044 425.284C63.5019 426.758 62.3809 428.04 61.2434 429.132Z" fill="#FFFFFE"/>
<path fill-rule="evenodd" clip-rule="evenodd" d="M115.396 470.674C114.271 471.601 113.014 472.323 111.618 472.775C111.006 472.972 110.351 472.664 110.154 472.079C109.957 471.496 110.271 470.872 110.899 470.662C118.19 468.266 121.377 455.541 121.077 449.12C120.952 446.448 119.572 443.325 118.114 440.04C115.552 434.235 112.924 428.296 116.531 423.181C116.905 422.6 117.658 422.436 118.188 422.744C118.726 423.054 118.849 423.742 118.461 424.284C115.591 428.34 117.997 433.744 120.338 439.019C121.886 442.498 123.356 445.806 123.5 448.882C123.775 454.672 121.533 465.625 115.396 470.674Z" fill="#FFFFFE"/>
<path fill-rule="evenodd" clip-rule="evenodd" d="M107.193 476.857C106.089 477.767 104.797 478.5 103.323 479.054C95.2623 482.083 83.9843 478.874 78.49 476.075C75.6115 474.605 72.8048 471.451 69.8708 468.155C65.2964 463.015 60.6644 457.808 55.9996 459.233C55.5028 459.385 55.0038 459.079 54.8827 458.549C54.7636 458.026 55.0798 457.475 55.5685 457.317C61.3173 455.539 66.5837 461.424 71.3368 466.734C74.1599 469.892 76.8619 472.907 79.416 474.196C84.399 476.709 95.1946 479.788 102.516 477.003C105.426 475.894 107.466 473.948 108.544 471.231C108.776 470.662 109.439 470.358 110.041 470.566C110.639 470.781 110.938 471.42 110.706 471.999C109.922 473.954 108.743 475.58 107.193 476.857Z" fill="#FFFFFE"/>
<path fill-rule="evenodd" clip-rule="evenodd" d="M656.358 217.137H437.991V273.897H349.631V330.657H261.273V387.417H172.913V444.177H84.553V515.913H656.358V217.137Z" fill="url(#paint3_linear_0_20)"/>
<path fill-rule="evenodd" clip-rule="evenodd" d="M533.148 96.6166L534.837 100.775L537.71 99.4914C537.874 99.5284 540.186 99.438 541.122 99.247C542.056 99.0581 542.789 98.4154 543.093 98.2306C543.432 98.0253 544.003 97.3702 543.493 97.2162C543.048 97.0807 542.541 97.6988 542.247 97.8199C541.956 97.9431 540.933 97.9452 540.933 97.9452C540.933 97.9452 541.315 97.7686 542.062 97.4709C542.972 97.1074 544.309 96.5776 544.58 96.3086C544.836 96.052 544.775 95.4955 544.075 95.629C543.229 95.7891 542.45 96.1813 542.309 96.2224L540.833 96.7481C540.833 96.7481 541.982 96.3086 542.391 96.1238C542.851 95.9144 544.114 95.4175 544.912 95.0602C545.684 94.7152 545.512 93.8466 544.803 93.8959C544.278 93.9349 542.512 94.8897 542.235 94.9821C541.956 95.0725 540.734 95.6372 540.734 95.6372C540.734 95.6372 542.198 94.9698 542.442 94.8076C542.687 94.6454 544.311 94.0294 544.5 93.5448C544.59 93.3107 544.487 92.8363 543.923 92.9308C543.266 93.0396 542.319 93.4031 541.884 93.6269C541.531 93.8076 539.217 94.9144 538.706 94.9349C538.246 94.9534 537.736 94.9062 537.728 94.323L536.936 92.861C536.936 92.861 536.402 93.1197 536.123 94.4482C535.971 95.1669 534.765 96.0848 533.148 96.6166Z" fill="#E77F66"/>
<path fill-rule="evenodd" clip-rule="evenodd" d="M484.715 113.752C484.722 110.171 487.532 107.214 491.074 106.68C496.88 105.804 507.672 104.136 510.926 103.387C515.453 102.344 533.948 96.169 533.948 96.169L535.971 101.052C535.971 101.052 515.85 111.161 512.232 111.951C508.614 112.742 490.033 119.333 486.43 117.257C485.169 116.531 484.711 115.206 484.715 113.752Z" fill="#245394"/>
<path fill-rule="evenodd" clip-rule="evenodd" d="M485.559 90.7295L485.875 91.0786C486.9 92.1094 487.976 93.1587 489.191 93.9657C489.93 94.4565 491.076 94.7747 491.711 95.2901C491.965 95.4975 492.232 95.6844 492.505 95.8507C492.138 97.9205 491.22 103.362 491.366 105.483C491.366 105.483 484.75 105.017 482.338 102.342C482.338 102.342 485.081 94.9719 485.559 90.7295Z" fill="#E77F66"/>
<path fill-rule="evenodd" clip-rule="evenodd" d="M489.107 101.791C488.647 99.9082 487.59 98.0643 486.095 96.8035C485.58 96.3702 485.058 95.9801 484.508 95.6269C484.986 93.9061 485.401 92.1443 485.559 90.7295L485.875 91.0786C486.9 92.1094 487.976 93.1587 489.191 93.9657C489.93 94.4565 491.076 94.7747 491.711 95.2901C491.965 95.4975 492.232 95.6844 492.505 95.8507C492.138 97.9205 491.22 103.362 491.366 105.483C491.366 105.483 490.23 105.401 488.733 105.12C489.216 104.11 489.388 102.945 489.107 101.791Z" fill="#D85C48"/>
<path fill-rule="evenodd" clip-rule="evenodd" d="M489.224 208.806C489.224 208.806 489.405 215.404 490.438 216.305C491.468 217.207 504.59 217.601 505.721 216.396C506.851 215.192 506.185 213.166 503.37 212.385C500.35 211.546 498.87 212.367 496.979 211.58C495.086 210.792 495.587 207.81 495.587 207.81L489.224 208.806Z" fill="#0C0A21"/>
<path fill-rule="evenodd" clip-rule="evenodd" d="M456.679 208.582C456.679 208.582 455.667 215.01 456.663 215.95C457.661 216.891 471.027 217.94 472.201 216.782C473.378 215.622 472.793 213.57 470.009 212.681C467.023 211.726 465.578 212.332 463.65 211.632C462.137 211.079 463.157 208.018 463.157 208.018L456.679 208.582Z" fill="#0C0A21"/>
<path fill-rule="evenodd" clip-rule="evenodd" d="M466.379 171.597C466.089 153.344 468.173 140.791 469.12 134.915C471.302 134.995 473.491 135.188 475.671 136.182C479.677 138.005 483.705 139.754 487.729 141.508C484.461 148.268 477.308 170.338 476.447 174.958C475.376 180.703 463.367 210.01 463.367 210.01L456.102 209.096C456.219 204.373 466.405 173.18 466.379 171.597Z" fill="#B4B8C3"/>
<path fill-rule="evenodd" clip-rule="evenodd" d="M481.285 138.789C483.393 139.816 485.58 140.629 487.768 141.426C484.561 148.058 478.714 166.41 477.394 171.287C476.373 168.208 471.446 160.771 469.553 152.629C468.288 147.186 468.07 141.551 468.941 136.03L468.951 135.964C473.027 136.243 476.973 136.687 481.285 138.789Z" fill="#999EAE"/>
<path fill-rule="evenodd" clip-rule="evenodd" d="M475.856 137.791C478.685 138.746 483.839 140.118 487.729 141.508C490.44 148.354 498.443 164.519 498.86 171.827C499.318 179.89 496.527 210.439 496.527 210.439H488.212C488.212 210.439 487.442 176.005 486.276 173.792C482.436 166.498 478.195 160.714 475.782 156.173C471.737 148.559 470.364 143.668 469.653 140.104C469.339 138.529 467.962 133.253 470.635 131.602C472.842 132.229 473.485 136.991 475.856 137.791Z" fill="#B4B8C3"/>
<path fill-rule="evenodd" clip-rule="evenodd" d="M490.758 143.167C490.758 143.167 483.775 145.989 476.897 145.325C471.805 144.837 469.171 144.757 466.192 143.151C466.192 143.151 469.376 118.327 473.049 110.502C476.722 102.676 482.755 101.177 482.755 101.177C482.755 101.177 487.508 103.939 491.392 103.877C491.392 103.877 491.298 119.128 491.002 125.218C490.705 131.309 490.758 143.167 490.758 143.167Z" fill="#245394"/>
<path fill-rule="evenodd" clip-rule="evenodd" d="M491.088 122.991C491.111 122.321 491.132 121.613 491.15 120.861L491.156 120.586C491.175 119.869 491.191 119.126 491.208 118.366L491.214 117.988C491.232 117.142 491.247 116.282 491.261 115.424V115.383C490.947 115.383 490.631 115.379 490.323 115.319C487.894 114.847 485.783 113.487 483.681 112.249C483.327 112.04 482.952 111.867 482.582 111.687C482.161 114.947 483.627 118.927 484.26 121.518C486.011 128.691 486.96 137.765 485.457 144.693C488.561 144.032 490.758 143.165 490.758 143.165C490.758 143.165 490.705 131.309 491.002 125.218C491.027 124.68 491.052 124.05 491.074 123.385L491.088 122.991Z" fill="#283869"/>
<path fill-rule="evenodd" clip-rule="evenodd" d="M482.128 84.5509C482.128 84.5509 484.954 78.6514 488.713 78.8896C492.47 79.1299 494.887 79.7438 495.386 81.1956C495.887 82.6453 496.731 86.6453 497.691 88.1238C498.654 89.6022 500.732 91.5427 500.687 92.2121C500.642 92.8815 498.49 93.1156 498.371 93.3887C498.252 93.6597 497.092 98.5304 496.306 99.0376C495.519 99.5448 488.296 96.7234 487.179 94.5735C486.062 92.4236 481.802 88.364 482.128 84.5509Z" fill="#E77F66"/>
<path fill-rule="evenodd" clip-rule="evenodd" d="M489.801 85.1114C490.171 85.134 490.631 85.3763 490.924 85.4277C491.477 85.5283 492.043 85.5755 492.598 85.67C493.714 85.8609 494.84 86.0293 495.942 85.6659C497.574 85.1279 497.049 83.518 497.798 82.3866C498.164 81.8363 498.936 81.8383 499.334 81.2264C499.714 80.6432 499.833 79.8034 499.823 79.1217C499.796 77.403 498.121 77.2428 496.804 76.9163C495.265 76.5323 495.174 75.6781 494.437 74.5118C492.612 71.6309 490.035 75.6309 488.011 75.3865C486.974 75.2613 485.888 74.5857 484.884 75.1586C484.015 75.6514 483.498 76.518 482.915 77.2921C482.309 78.097 481.71 77.7705 480.827 78.1052C480.18 78.3496 479.465 78.9677 479.001 79.4954C477.967 80.6761 477.291 82.4708 477.609 84.0272C477.88 85.3517 478.946 86.0683 478.999 87.4626C479.043 88.5694 478.981 89.941 479.521 90.9534C480.305 92.4215 482.05 92.6146 483.219 93.6146C484.331 94.5673 485.908 95.2573 487.413 94.9103C487.569 93.8692 487.471 92.1176 486.557 91.5981C486.192 91.3907 485.744 91.3538 485.167 90.8856C484.12 90.0314 484.74 87.8835 486.713 88.1587C487.9 88.323 488.436 91.5632 489.727 91.0376C490.711 90.6371 489.526 88.9985 489.257 88.4421C488.9 87.7049 488.709 85.8404 489.409 85.2182L489.801 85.1114Z" fill="#0C0A21"/>
<path fill-rule="evenodd" clip-rule="evenodd" d="M521.301 143.301C521.687 143.27 522.143 143.18 522.276 143.225C522.908 143.434 523.97 143.128 524.413 142.96C525.424 142.58 526.965 141.909 528.004 142.093C528.608 142.2 532.224 143.042 531.337 144.527C531.218 144.726 530.774 145.038 530.647 144.989C530.275 144.851 529.234 144.471 529.234 144.471L530.197 144.88L530.698 145.243C530.897 145.551 530.593 146.212 530.279 146.321C529.969 146.43 529.727 146.116 529.466 145.972L529.485 145.985C529.735 146.184 530.279 146.321 529.943 147.085C529.565 147.937 529.306 147.399 528.945 147.309L528.555 147.155L529.302 147.566C529.639 147.867 528.891 148.874 528.222 148.787C527.809 148.736 526.834 148.143 526.602 148.208C526.343 148.28 526.033 148.276 525.766 148.301C524.943 148.379 524.079 148.157 523.323 147.814C522.984 147.66 522.311 147.395 521.976 147.215C521.137 146.767 520.211 146.052 519.964 145.847C520.523 144.781 521.416 144.51 521.301 143.301Z" fill="#E77F66"/>
<path fill-rule="evenodd" clip-rule="evenodd" d="M520.044 147.845L522.966 142.06C522.966 142.06 508.483 132.787 503.188 127.446C497.895 122.106 492.17 111.237 488.134 110.551C484.095 109.869 480.032 112.095 482.371 117.713C484.709 123.333 496.55 130.783 498.962 133.255C501.375 135.73 517.677 146.516 520.044 147.845Z" fill="#245394"/>
<path fill-rule="evenodd" clip-rule="evenodd" d="M512.616 37.1214C514.345 36.6553 519.931 34.6778 522.718 45.1461C525.37 55.1133 527.783 68.4542 527.783 68.4542C527.783 68.4542 518.628 58.4562 512.304 50.3083C505.662 41.7539 510.957 37.8832 512.616 37.1214Z" fill="#EB8E3E"/>
<path fill-rule="evenodd" clip-rule="evenodd" d="M520.443 45.9202L528.951 57.5794C531.515 61.0949 533.757 64.8341 535.655 68.7499L567.76 135.104L528.731 78.6925C524.327 72.329 520.97 65.3023 518.786 57.8792L516.104 48.7662C517.734 48.1523 519.207 47.1728 520.443 45.9202Z" fill="#0C0A21"/>
<path fill-rule="evenodd" clip-rule="evenodd" d="M529.347 69.4707C529.347 69.4707 538.687 51.7313 534.131 38.7456C529.575 25.7599 518.135 47.643 518.135 47.643L529.347 69.4707Z" fill="#EB8E3E"/>
<path fill-rule="evenodd" clip-rule="evenodd" d="M529.413 69.366C529.413 69.366 509.569 66.5261 501.726 55.218C493.883 43.9099 518.316 47.4808 518.316 47.4808L529.413 69.366Z" fill="#EB8E3E"/>
<path fill-rule="evenodd" clip-rule="evenodd" d="M537.188 96.8199C537.43 96.7214 540.406 95.9801 540.642 95.9082L539.336 93.401C539.426 92.7645 541.849 92.6022 542.387 92.3209C544.013 91.4729 543.358 90.4503 542.619 90.6823C542.116 90.8404 540.974 91.1792 540.537 91.3723C540.073 91.5796 539.317 91.4811 538.855 91.5653C538.406 91.6474 537.157 92.7562 536.767 93.015C536.455 93.2203 535.981 94.5242 535.971 95.2203C535.954 96.3826 536.636 97.0437 537.188 96.8199Z" fill="#E77F66"/>
<path fill-rule="evenodd" clip-rule="evenodd" d="M554.611 442.442L555.609 546.01C555.661 551.388 557.184 554.511 564.869 555.501C574.431 556.735 577.326 555.049 578.742 552.42C581.405 547.48 607.491 448.502 611.798 441.771C616.106 435.038 554.611 442.442 554.611 442.442Z" fill="#0C0A21"/>
<path fill-rule="evenodd" clip-rule="evenodd" d="M651.449 406.783C656.89 406.76 661.668 410.456 662.881 415.76C663.594 418.88 664.142 422.865 664.185 427.806C664.236 433.707 663.797 437.543 662.349 440.771C660.59 444.689 656.594 447.112 652.303 447.268C631.279 448.032 555.57 450.999 539.786 454.711C521.408 459.03 459.854 486.354 459.854 486.354L471.59 347.893C471.59 347.893 528.132 393.727 564.031 400.855C591.954 406.399 634.104 406.855 651.449 406.783Z" fill="#B4B8C3"/>
<path fill-rule="evenodd" clip-rule="evenodd" d="M612.936 448.921C605.111 449.294 596.958 449.711 588.953 450.173C593.977 433.954 591.991 415.407 589.427 404.343C597.434 405.097 605.614 405.619 613.467 405.988C617.196 421.762 616.539 436.574 612.936 448.921Z" fill="#245394"/>
<path fill-rule="evenodd" clip-rule="evenodd" d="M399.79 412.506C399.394 462.564 423.233 503.334 453.031 503.568C482.829 503.802 507.304 463.414 507.699 413.356C508.093 363.296 484.256 322.526 454.456 322.292C424.658 322.055 400.182 362.448 399.79 412.506Z" fill="#D9DCDF"/>
<path fill-rule="evenodd" clip-rule="evenodd" d="M403.81 412.539C403.476 455.118 423.753 489.802 449.101 490.001C474.45 490.2 495.271 455.841 495.605 413.259C495.94 370.676 475.663 335.994 450.315 335.795C424.966 335.596 404.145 369.955 403.81 412.539Z" fill="#0C0A21"/>
<path fill-rule="evenodd" clip-rule="evenodd" d="M459.42 420.372C458.332 405.202 468.261 392.13 481.597 391.173C486.157 390.846 490.483 392.066 494.302 394.302C495.168 400.382 495.657 406.709 495.605 413.259C495.517 424.516 493.963 435.165 491.308 444.785C489.469 445.453 487.559 445.958 485.539 446.103C472.203 447.06 460.509 435.539 459.42 420.372Z" fill="#EB8E3E"/>
<path fill-rule="evenodd" clip-rule="evenodd" d="M539.517 364.978C539.691 363.378 539.814 361.885 538.933 360.345C539.716 360.477 540.872 360.596 540.808 360.138C540.718 359.52 540.586 358.633 541.036 358.715C541.471 358.795 541.822 359.054 542.2 359.302C543.007 359.834 543.929 359.902 544.89 359.959C545.208 361.019 546.109 362.653 545.53 363.793C545.233 364.382 543.654 364.105 542.951 364.374C541.798 364.811 540.488 364.918 539.517 364.978Z" fill="#E77F66"/>
<path fill-rule="evenodd" clip-rule="evenodd" d="M561.672 316.09C561.672 316.09 568.341 315.715 577.365 319.984L573.16 338.296C573.16 338.296 568.842 335.682 562.908 336.041L561.672 316.09Z" fill="#FFFFFE"/>
<path fill-rule="evenodd" clip-rule="evenodd" d="M566.078 325.711C566.039 322.657 565.848 319.602 565.779 316.55C563.22 316.103 561.672 316.09 561.672 316.09L562.908 336.041C564.625 333.425 565.444 334.004 565.783 333.686C565.772 331.047 566.113 328.327 566.078 325.711Z" fill="#B4B8C3"/>
<path fill-rule="evenodd" clip-rule="evenodd" d="M525.245 317.047C525.245 317.047 549.111 307.661 564.754 310.866L565.783 333.686C565.783 333.686 551.911 330.616 532.706 339.027L525.245 317.047Z" fill="#FFFFFE"/>
<path fill-rule="evenodd" clip-rule="evenodd" d="M545.07 370.75L543.13 371.423L524.354 317.357L526.294 316.684L545.07 370.75Z" fill="#0C0A21"/>
<path fill-rule="evenodd" clip-rule="evenodd" d="M543.68 365.107V358.647C543.68 358.647 562.958 358.797 571.043 356.479C579.128 354.16 589.959 344.649 594.27 346.189C598.582 347.729 601.331 352.123 595.979 356.327C590.626 360.532 577.917 364.167 572.406 365.009C568.587 365.592 546.717 365.105 543.68 365.107Z" fill="#245394"/>
<path fill-rule="evenodd" clip-rule="evenodd" d="M575.929 361.074C582.736 358.245 589.166 352.084 594.65 346.345C598.734 348.002 601.171 352.251 595.979 356.327C590.626 360.532 577.917 364.167 572.406 365.009C570.527 365.294 564.288 365.323 558.069 365.278C564.228 364.666 570.293 363.417 575.929 361.074Z" fill="#283869"/>
<path fill-rule="evenodd" clip-rule="evenodd" d="M576.102 439.96C576.102 439.96 579.869 446.042 579.315 447.487C578.761 448.931 565.668 456.533 563.906 455.927C562.142 455.321 561.804 453.241 564.148 451.147C566.255 449.266 568.312 448.732 569.725 446.898C570.963 445.29 569.729 441.181 569.729 441.181L576.102 439.96Z" fill="#0C0A21"/>
<path fill-rule="evenodd" clip-rule="evenodd" d="M598.106 388.368C598.106 388.368 595.484 390.516 592.718 390.154C589.953 389.795 562.982 392.598 560.219 394.881C557.453 397.167 568.77 442.798 568.77 442.798L578.147 441.235C578.147 441.235 574.786 407.875 575.346 407.635C575.909 407.395 590.07 407.446 614.217 407.446C620.11 407.446 626.68 395.062 619.227 386.405L598.106 388.368Z" fill="#0C0A21"/>
<path fill-rule="evenodd" clip-rule="evenodd" d="M593.905 337.542C594.841 337.146 595.654 336.577 596.428 335.951C596.798 338.723 597.841 343.84 600.668 346.511C600.668 346.511 594.816 348.928 590.018 347.865C590.018 347.865 590.583 341.357 589.591 338.169C591.057 338.259 592.533 338.119 593.905 337.542Z" fill="#E77F66"/>
<path fill-rule="evenodd" clip-rule="evenodd" d="M596.769 345.462C595.853 342.589 592.958 340.805 590.051 340.772C589.963 339.809 589.819 338.9 589.591 338.169C591.057 338.259 592.533 338.119 593.905 337.542C594.841 337.146 595.654 336.577 596.428 335.951C596.798 338.723 597.841 343.84 600.668 346.511C600.668 346.511 599.233 347.103 597.204 347.573C597.157 346.881 597.001 346.189 596.769 345.462Z" fill="#D85C48"/>
<path fill-rule="evenodd" clip-rule="evenodd" d="M595.576 321.735C595.576 321.735 588.663 319.563 586.479 320.926C584.294 322.29 582.592 326.579 582.97 329.09C583.35 331.6 580.467 334.513 580.391 335.421C580.332 336.15 582.58 336.674 582.652 336.953C582.723 337.23 582.855 341.805 585.885 342.579C590.148 343.665 595.847 340.236 597.806 337.657C599.765 335.078 602.075 323.283 595.576 321.735Z" fill="#E77F66"/>
<path fill-rule="evenodd" clip-rule="evenodd" d="M582.701 322.027C583.066 321.661 584.002 321.07 584.232 320.6C584.423 320.207 584.514 319.76 584.756 319.405C585.524 318.279 585.707 317.458 588.866 316.468C591.614 315.608 595.116 316.6 597.297 318.345C598.1 318.988 598.802 319.768 599.305 320.669C599.455 320.938 599.931 321.682 599.818 321.965C599.674 322.322 598.65 322.567 598.332 322.754C597.763 323.084 597.289 323.596 596.775 324.012C593.622 326.575 588.69 329.318 585.216 325.762C584.76 325.294 584.304 324.791 583.914 324.265C583.28 325.671 582.808 327.298 582.957 328.858C582.957 328.858 581.828 328.006 581.549 326.637C581.077 324.318 581.828 322.901 582.701 322.027Z" fill="#0C0A21"/>
<path fill-rule="evenodd" clip-rule="evenodd" d="M597.319 321.813C598.157 321.361 599.726 321.509 600.596 321.696C602.409 322.09 603.391 323.419 603.711 325.183C603.904 326.249 604.054 327.341 604.037 328.425C604.006 330.343 603.916 331.546 603.226 333.339C602.577 335.027 601.697 336.696 600.34 337.924C599.116 339.035 596.714 340.312 595.515 339.83C595.051 339.643 594.379 336.306 594.504 335.438C594.624 334.604 595.034 334.594 595.689 334.222C596.792 333.596 598.024 332.364 597.219 331.029C596.069 329.125 593.934 329.998 593.164 332.631C593.164 332.631 592.326 334.109 591.854 333.873C591.38 333.639 589.252 326.166 597.319 321.813Z" fill="#0C0A21"/>
<path fill-rule="evenodd" clip-rule="evenodd" d="M596.445 331.3C596.445 331.3 595.278 330.807 594.396 331.838C593.57 332.799 593.96 334.351 594.773 333.77C595.586 333.187 595.262 332.682 595.406 332.203C595.547 331.727 596.126 331.345 596.445 331.3Z" fill="#D85C48"/>
<path fill-rule="evenodd" clip-rule="evenodd" d="M622.555 385.838C622.555 385.838 612.79 393.413 592.542 390.039C592.542 390.039 592.595 384.226 590.895 378.538C589.193 372.853 586.649 361.77 586.575 355.92C586.491 349.312 590.115 346.337 590.115 346.337C590.115 346.337 593.915 349.902 599.584 345.257C599.584 345.257 610.322 347.803 615.35 360.013C620.376 372.222 622.555 385.838 622.555 385.838Z" fill="#245394"/>
<path fill-rule="evenodd" clip-rule="evenodd" d="M598.171 354.783C603.397 360.429 598.342 374.331 591.733 382.085C591.513 380.931 591.254 379.744 590.895 378.538C590 375.542 588.877 371.054 587.996 366.616C589.764 365.526 591.275 363.883 592.225 361.581C594.256 356.661 595.576 353.329 598.171 354.783Z" fill="#283869"/>
<path fill-rule="evenodd" clip-rule="evenodd" d="M555.813 393.635C555.043 394.224 554.295 394.777 553.353 394.904C552.909 394.964 552.48 394.998 552.098 395.226C551.704 395.458 551.166 395.584 550.698 395.727C550.257 395.863 549.706 395.97 549.37 396.36C548.969 396.83 549.741 396.978 550.271 397.001C550.846 397.027 552.355 396.042 552.807 396.454C553.258 396.865 551.345 397.949 550.961 398.159C550.055 398.656 549.388 398.259 548.452 398.274C547.906 398.28 547.659 398.45 548.035 398.957C548.316 399.335 548.867 399.35 549.296 399.38C550.172 399.442 551.176 399.325 551.99 398.941C551.392 399.317 550.226 399.555 549.524 399.61C549.037 399.647 546.937 399.444 546.928 400.214C546.912 401.76 551.571 400.773 552.256 400.239C551.517 400.703 550.665 400.875 549.817 401.07C549.32 401.183 548.134 401.403 548.785 402.044C549.75 402.99 552.043 401.426 553.193 400.91C552.56 401.495 551.901 401.734 551.088 402.167C550.127 402.676 550.838 403.204 551.911 402.853C552.363 402.705 553.211 402.259 553.394 402.159C555.32 401.093 556.038 400.105 557.071 398.255C557.441 397.59 558.818 396.764 558.679 396.122C558.414 394.877 556.712 394.23 555.813 393.635Z" fill="#E77F66"/>
<path fill-rule="evenodd" clip-rule="evenodd" d="M554.381 392.69L558.301 398.007C558.301 398.007 583.401 387.138 585.657 384.267C587.916 381.393 595.291 370.879 596.445 368.08C599.12 361.583 602.44 353.836 596.445 352.479C593.174 351.737 591.065 352.561 589.033 357.378C586.267 363.928 580.391 374.306 577.999 377.46C577.073 378.684 554.381 392.69 554.381 392.69Z" fill="#245394"/>
<path fill-rule="evenodd" clip-rule="evenodd" d="M536.718 360.452C536.363 361.017 537.338 363.438 538.27 364.454C539.003 365.253 539.87 365.019 540.596 364.62C541.381 364.148 542.315 363.978 542.432 363.518C542.598 361.715 540.927 363.07 540.186 363.335C540.186 363.335 542.204 362.333 542.177 361.466C542.097 359.838 539.615 361.717 538.917 362.029C539.621 361.836 540.74 361.054 540.837 360.752C541.315 360.392 541.015 359.9 540.911 359.801C540.373 359.298 538.258 360.818 538.258 360.818C538.638 360.544 540.184 359.99 539.562 359.275C539.149 358.803 538.527 359.197 538.155 359.31C537.428 359.53 536.835 360.056 536.718 360.452Z" fill="#E77F66"/>
<path fill-rule="evenodd" clip-rule="evenodd" d="M541.475 360.382C541.241 360.286 541.017 360.238 540.787 360.169L540.808 360.138C540.718 359.52 538.369 359.362 537.847 359.091C536.272 358.267 536.907 357.275 537.623 357.501C538.112 357.655 539.219 357.982 539.642 358.171C540.093 358.372 540.824 358.275 541.272 358.358C541.709 358.438 542.919 359.514 543.298 359.762C544.103 360.292 542.333 360.729 541.475 360.382Z" fill="#E77F66"/>
<path fill-rule="evenodd" clip-rule="evenodd" d="M366.026 378.869C365.506 380.282 370.188 383.304 376.485 385.616C382.78 387.931 388.305 388.66 388.824 387.245C389.344 385.832 384.66 382.809 378.365 380.495C372.07 378.183 366.545 377.454 366.026 378.869Z" fill="#FFFFFE"/>
<path fill-rule="evenodd" clip-rule="evenodd" d="M377.478 350.524C376.879 351.906 381.384 355.189 387.537 357.854C393.692 360.522 399.166 361.563 399.766 360.179C400.365 358.797 395.86 355.514 389.705 352.848C383.552 350.183 378.076 349.142 377.478 350.524Z" fill="#FFFFFE"/>
<path fill-rule="evenodd" clip-rule="evenodd" d="M369.001 454.543C369.448 455.982 375.002 455.541 381.408 453.553C387.816 451.568 392.647 448.791 392.202 447.352C391.754 445.913 386.2 446.356 379.794 448.342C373.389 450.329 368.555 453.106 369.001 454.543Z" fill="#FFFFFE"/>
<path fill-rule="evenodd" clip-rule="evenodd" d="M380.649 485.213C381.211 486.611 386.71 485.714 392.933 483.208C399.154 480.703 403.743 477.541 403.18 476.143C402.617 474.744 397.117 475.642 390.896 478.147C384.673 480.652 380.086 483.816 380.649 485.213Z" fill="#FFFFFE"/>
<path fill-rule="evenodd" clip-rule="evenodd" d="M362.54 417.06C362.618 418.565 368.11 419.502 374.809 419.155C381.507 418.806 386.874 417.305 386.796 415.799C386.718 414.294 381.223 413.358 374.526 413.705C367.827 414.054 362.462 415.555 362.54 417.06Z" fill="#FFFFFE"/>
<path fill-rule="evenodd" clip-rule="evenodd" d="M640.961 453.231L639.832 450.385L592.525 450.223L593.597 453.11L640.961 453.231Z" fill="#0C0A21"/>
<path fill-rule="evenodd" clip-rule="evenodd" d="M647 468.442L645.85 465.549L598.239 465.611L599.327 468.547L647 468.442Z" fill="#0C0A21"/>
<path fill-rule="evenodd" clip-rule="evenodd" d="M633.49 438.097L632.367 435.266L585.066 434.882L586.132 437.752L633.49 438.097Z" fill="#0C0A21"/>
<path fill-rule="evenodd" clip-rule="evenodd" d="M653.137 483.905L651.969 480.964L604.048 481.258L605.154 484.243L653.137 483.905Z" fill="#0C0A21"/>
<path fill-rule="evenodd" clip-rule="evenodd" d="M659.376 499.63L658.19 496.638L609.955 497.172L611.082 500.209L659.376 499.63Z" fill="#0C0A21"/>
<path fill-rule="evenodd" clip-rule="evenodd" d="M665.723 515.619L664.515 512.578L615.962 513.359L617.11 516.449L665.723 515.619Z" fill="#0C0A21"/>
<path fill-rule="evenodd" clip-rule="evenodd" d="M672.178 531.88L670.95 528.788L622.076 529.825L623.243 532.969L672.178 531.88Z" fill="#0C0A21"/>
<path fill-rule="evenodd" clip-rule="evenodd" d="M629.971 556.999L630.219 556.991C631.737 556.946 632.776 555.531 632.277 554.19L586.392 430.919C586.086 430.099 585.224 429.535 584.259 429.526H584.214C582.711 429.512 581.66 430.8 582.132 432.079L627.792 555.597C628.113 556.462 628.994 557.028 629.971 556.999Z" fill="#0C0A21"/>
<path fill-rule="evenodd" clip-rule="evenodd" d="M678.05 556.999L678.298 556.991C679.816 556.946 680.855 555.531 680.356 554.19L634.469 430.919C634.165 430.099 633.303 429.535 632.338 429.526H632.291C630.79 429.512 629.739 430.8 630.211 432.079L675.871 555.597C676.19 556.462 677.073 557.028 678.05 556.999Z" fill="#0C0A21"/>
<path fill-rule="evenodd" clip-rule="evenodd" d="M288.455 279.072C288.455 279.072 283.466 297.064 281.014 300.008C278.561 302.951 270.547 307.285 270.547 307.285L272.675 311.047C272.675 311.047 287.236 303.624 289.763 297.554C291.235 294.018 292.215 290.965 292.707 288.232C293.108 286.004 294.754 280.466 293.933 278.254C293.399 276.815 289.599 276.047 288.455 279.072Z" fill="#245394"/>
<path fill-rule="evenodd" clip-rule="evenodd" d="M272.675 311.047L270.547 307.285C270.547 307.285 278.561 302.951 281.014 300.008C281.702 299.181 282.591 297.17 283.511 294.704C284.412 297.103 285.589 299.749 286.326 301.949C281.189 306.706 272.675 311.047 272.675 311.047Z" fill="#16458A"/>
<path fill-rule="evenodd" clip-rule="evenodd" d="M238.479 364.947L234.804 361.514C234.804 361.514 220.105 360.431 219.245 361.721C218.387 363.013 233.184 369.992 235.085 369.867C236.984 369.74 238.231 366.364 238.479 364.947Z" fill="#0C0A21"/>
<path fill-rule="evenodd" clip-rule="evenodd" d="M265.425 315.211C265.425 315.211 251.525 311.673 250.379 313.963C249.236 316.253 234.804 361.514 234.804 361.514L238.479 364.947C238.479 364.947 253.954 326.747 258.436 322.754C262.918 318.762 267.496 316.788 265.425 315.211Z" fill="#E77F66"/>
<path fill-rule="evenodd" clip-rule="evenodd" d="M265.425 315.211C265.425 315.211 251.525 311.673 250.379 313.963C249.236 316.253 234.804 361.514 234.804 361.514L238.479 364.947C238.479 364.947 253.954 326.747 258.436 322.754C262.918 318.762 267.496 316.788 265.425 315.211Z" fill="#D85C48"/>
<path fill-rule="evenodd" clip-rule="evenodd" d="M272.592 306.877C271.539 306.593 270.667 306.244 269.704 305.717C268.93 305.292 268.182 304.889 267.25 305.023C266.589 305.117 261.247 307.341 262.669 308.335C263.131 308.657 264.283 308.092 264.743 307.928C265.398 307.692 266.059 307.372 266.687 307.092C266.115 307.064 263.226 308.287 263.528 308.963C264.061 310.15 266.987 308.565 267.667 308.183C267.147 308.263 265.339 308.942 265.341 309.602C265.345 310.639 267.492 309.772 267.96 309.534C268.303 309.359 268.562 309.109 268.94 309.057C269.387 308.998 269.825 309.199 270.248 309.289C270.985 309.446 271.775 309.402 272.525 309.333C272.97 309.292 274.007 309.386 274.229 309.004C274.463 308.6 274.286 307.678 273.941 307.382C273.572 307.066 273.067 307.004 272.592 306.877Z" fill="#E77F66"/>
<path fill-rule="evenodd" clip-rule="evenodd" d="M272.592 306.877C271.539 306.593 270.667 306.244 269.704 305.717C268.93 305.292 268.182 304.889 267.25 305.023C266.589 305.117 261.247 307.341 262.669 308.335C263.131 308.657 264.283 308.092 264.743 307.928C265.398 307.692 266.059 307.372 266.687 307.092C266.115 307.064 263.226 308.287 263.528 308.963C264.061 310.15 266.987 308.565 267.667 308.183C267.147 308.263 265.339 308.942 265.341 309.602C265.345 310.639 267.492 309.772 267.96 309.534C268.303 309.359 268.562 309.109 268.94 309.057C269.387 308.998 269.825 309.199 270.248 309.289C270.985 309.446 271.775 309.402 272.525 309.333C272.97 309.292 274.007 309.386 274.229 309.004C274.463 308.6 274.286 307.678 273.941 307.382C273.572 307.066 273.067 307.004 272.592 306.877Z" fill="#D85C48"/>
<path fill-rule="evenodd" clip-rule="evenodd" d="M248.513 282.85L245.242 284.191L256.473 311.296L259.781 309.509L248.513 282.85Z" fill="#0C0A21"/>
<path fill-rule="evenodd" clip-rule="evenodd" d="M258.582 312.357H279.965V309.037H258.582V312.357Z" fill="#0C0A21"/>
<path fill-rule="evenodd" clip-rule="evenodd" d="M317.781 293.587C314.92 291.951 314.442 290.144 316.025 284.16C317.61 278.174 313.465 271.969 309.478 270.328C306.548 269.121 303.975 268.589 302.195 265.468C300.413 262.345 303.788 255.685 298.146 250.751C294.036 247.158 288.137 250.028 288.137 250.028C286.868 249.326 286.344 256.727 286.252 262.293C293.397 273.23 291.362 287.519 288.759 299.764C288.695 300.064 288.595 300.322 288.496 300.585C289.057 310.06 289.508 317.906 289.508 317.906C289.508 317.906 306.683 327.63 318.366 319.304C330.046 310.977 323.511 296.864 317.781 293.587Z" fill="#0C0A21"/>
<path fill-rule="evenodd" clip-rule="evenodd" d="M267.279 362.703L262.918 365.21C262.918 365.21 257.575 378.949 258.557 380.148C259.536 381.347 270.549 369.245 270.985 367.39C271.422 365.538 268.56 363.358 267.279 362.703Z" fill="#0C0A21"/>
<path fill-rule="evenodd" clip-rule="evenodd" d="M272.839 314.4C272.839 314.4 244.819 316.363 242.203 318.871C239.586 321.378 263.374 364.947 263.374 364.947L267.279 362.703C267.279 362.703 261.39 341.986 259.865 337.189C258.337 332.39 255.395 326.612 255.939 325.848C256.485 325.084 284.72 329.337 284.503 321.378C284.285 313.419 272.839 314.4 272.839 314.4Z" fill="#E77F66"/>
<path fill-rule="evenodd" clip-rule="evenodd" d="M286.657 267.133C286.657 267.133 289.599 275.148 287.8 281.117L297.612 278.745C297.612 278.745 293.598 265.334 291.882 263.045C290.163 260.755 286.657 267.133 286.657 267.133Z" fill="#E77F66"/>
<path fill-rule="evenodd" clip-rule="evenodd" d="M290.744 274.33C293.958 274.33 295.623 276.704 295.777 279.189L297.612 278.745C297.612 278.745 293.598 265.334 291.882 263.045C290.163 260.755 286.657 267.133 286.657 267.133C286.657 267.133 287.975 270.739 288.303 274.913C288.989 274.554 289.792 274.33 290.744 274.33Z" fill="#D85C48"/>
<path fill-rule="evenodd" clip-rule="evenodd" d="M285.64 256.687C285.64 256.687 281.83 258.509 280.918 260.045C280.008 261.583 280.805 263.706 280.729 265.111C280.653 266.515 280.265 268.601 280.479 268.942C280.69 269.285 282.094 268.942 282.322 269.246C282.55 269.55 284.371 270.688 284.94 271.977C285.509 273.267 286.266 273.382 287.595 272.737C288.923 272.092 294.005 265.375 294.062 262.228C294.12 259.078 289.416 255.398 285.64 256.687Z" fill="#E77F66"/>
<path fill-rule="evenodd" clip-rule="evenodd" d="M288.87 252.414C288.87 252.414 287.092 255.973 286.907 257.384C286.722 258.794 288.073 262.965 288.87 263.517C289.667 264.069 288.993 258.856 291.017 260.449C293.04 262.045 290.894 265.051 291.017 265.665C291.139 266.277 292.058 268.24 294.144 268.425C296.23 268.61 299.665 258.242 297.395 255.665C295.126 253.09 291.262 252.414 288.87 252.414Z" fill="#0C0A21"/>
<path fill-rule="evenodd" clip-rule="evenodd" d="M289.217 250.328C289.217 250.328 285.864 247.815 282.37 250.636C278.873 253.457 278.994 257.69 276.112 257.322C276.112 257.322 278.013 262.23 282.185 261.063C286.355 259.899 290.668 253.273 289.217 250.328Z" fill="#0C0A21"/>
<path fill-rule="evenodd" clip-rule="evenodd" d="M300.639 305.786L287.642 304.805C287.642 304.805 280.879 312.357 274.2 312.357C267.605 312.357 251.361 312.357 251.361 312.357C251.361 312.357 252.595 322.782 258.093 330.325C258.093 330.325 279.791 331.008 290.367 330.136C300.94 329.263 310.995 317.6 300.639 305.786Z" fill="#0C0A21"/>
<path fill-rule="evenodd" clip-rule="evenodd" d="M257.393 313.885C260.702 313.561 263.918 312.77 267.178 312.357H252.849C254.264 313.084 254.962 314.121 257.393 313.885Z" fill="#D55F2B"/>
<path fill-rule="evenodd" clip-rule="evenodd" d="M296.366 274.219C296.366 274.219 290.4 276.566 288.377 276.784C288.377 276.784 284.176 286.051 282.54 288.558C280.906 291.066 286.685 300.661 287.012 304.805C287.012 304.805 290.486 308.121 301.014 306.082C301.014 306.082 303.762 280.051 296.366 274.219Z" fill="#245394"/>
<path fill-rule="evenodd" clip-rule="evenodd" d="M294.705 306.745C292.169 306.745 290.365 306.357 289.143 305.928C290.367 306.357 292.175 306.745 294.709 306.745C296.426 306.745 298.477 306.567 300.903 306.103C298.473 306.567 296.421 306.745 294.705 306.745Z" fill="#08091D"/>
<path fill-rule="evenodd" clip-rule="evenodd" d="M300.854 285.053C300.62 283.441 300.308 281.893 299.902 280.476C300.308 281.893 300.62 283.441 300.854 285.053Z" fill="#08091D"/>
<path fill-rule="evenodd" clip-rule="evenodd" d="M294.709 306.745C292.176 306.745 290.367 306.357 289.143 305.928C288.441 305.68 287.932 305.419 287.589 305.211C289.231 303.234 290.51 300.813 291.018 298.854C291.668 296.345 291.831 292.92 291.97 290.345C292.104 287.893 290.974 283.87 292.075 281.606C292.73 280.254 294.631 279.433 296.317 279.433C296.914 279.433 297.485 279.536 297.963 279.755C298.44 279.973 299.142 280.215 299.902 280.476C300.308 281.893 300.62 283.441 300.854 285.053C300.856 285.057 300.856 285.059 300.856 285.063C300.858 285.074 300.858 285.082 300.86 285.09C300.86 285.094 300.862 285.1 300.862 285.105C300.865 285.113 300.865 285.121 300.867 285.129C300.867 285.133 300.867 285.137 300.869 285.144C300.869 285.146 300.869 285.148 300.869 285.15C300.871 285.166 300.875 285.185 300.877 285.201C300.877 285.205 300.877 285.209 300.879 285.213C300.879 285.222 300.881 285.228 300.881 285.236C300.881 285.24 300.883 285.242 300.883 285.246C300.885 285.254 300.885 285.265 300.887 285.273V285.275C300.891 285.308 300.895 285.337 300.899 285.369C300.899 285.369 300.899 285.371 300.901 285.374C300.901 285.382 300.904 285.392 300.904 285.4C300.906 285.404 300.906 285.404 300.906 285.408C302.062 293.741 301.248 303.593 301.053 305.68C301.053 305.682 301.053 305.682 301.053 305.682C301.045 305.758 301.039 305.823 301.033 305.879C301.033 305.883 301.033 305.889 301.033 305.893C301.033 305.895 301.033 305.895 301.033 305.895C301.033 305.897 301.031 305.901 301.031 305.903C301.031 305.918 301.029 305.93 301.027 305.942C301.027 305.944 301.027 305.947 301.027 305.949C301.027 305.953 301.027 305.955 301.027 305.959C301.027 305.961 301.025 305.963 301.025 305.965C301.025 305.965 301.025 305.967 301.025 305.969V305.971C301.025 305.973 301.025 305.975 301.025 305.975C301.025 305.979 301.023 305.981 301.023 305.986C301.023 305.988 301.023 305.992 301.023 305.994C301.023 305.996 301.023 305.996 301.023 305.996C301.023 305.998 301.023 306 301.023 306C301.023 306.002 301.021 306.002 301.021 306.004C301.021 306.006 301.021 306.008 301.021 306.01C301.021 306.02 301.019 306.031 301.019 306.039C301.019 306.041 301.019 306.041 301.016 306.043V306.045C301.016 306.047 301.016 306.049 301.016 306.049C301.016 306.051 301.016 306.053 301.016 306.055C301.016 306.059 301.016 306.062 301.014 306.064C301.014 306.066 301.014 306.066 301.014 306.066C301.014 306.068 301.014 306.068 301.014 306.068C301.014 306.07 301.014 306.074 301.014 306.076V306.08C301.014 306.082 301.014 306.082 301.014 306.082C300.977 306.088 300.94 306.096 300.904 306.103C298.477 306.567 296.426 306.745 294.709 306.745Z" fill="#16458A"/>
<path fill-rule="evenodd" clip-rule="evenodd" d="M274.635 306.877C273.582 306.593 272.712 306.244 271.747 305.717C270.972 305.292 270.225 304.889 269.295 305.023C268.634 305.117 263.292 307.341 264.714 308.335C265.176 308.657 266.326 308.092 266.788 307.928C267.443 307.692 268.104 307.372 268.732 307.092C268.158 307.064 265.269 308.287 265.573 308.963C266.104 310.15 269.03 308.565 269.712 308.183C269.192 308.263 267.381 308.942 267.386 309.602C267.39 310.639 269.537 309.772 270.003 309.534C270.348 309.359 270.607 309.109 270.985 309.057C271.432 308.998 271.868 309.199 272.293 309.289C273.03 309.446 273.82 309.402 274.57 309.333C275.015 309.292 276.052 309.386 276.274 309.004C276.508 308.6 276.329 307.678 275.984 307.382C275.617 307.066 275.112 307.004 274.635 306.877Z" fill="#E77F66"/>
<path fill-rule="evenodd" clip-rule="evenodd" d="M273.736 306.745L274.882 311.047C274.882 311.047 303.01 307.776 303.663 302.788C304.318 297.799 302.519 274.579 295.732 276.989C288.946 279.4 295.649 296.246 294.588 297.554C293.524 298.862 273.736 306.745 273.736 306.745Z" fill="#245394"/>
<path fill-rule="evenodd" clip-rule="evenodd" d="M610.963 151.471C610.963 151.471 602.692 153.539 596.492 158.132C590.289 162.728 583.859 176.97 582.594 186.964C581.331 196.956 578.804 204.767 582.594 209.878C586.384 214.991 598.674 216.024 609.24 217.057C619.806 218.092 634.385 215.564 637.317 211.888C640.249 208.213 640.019 180.391 634.506 169.894C628.994 159.397 619.003 151.241 610.963 151.471Z" fill="#245394"/>
<path fill-rule="evenodd" clip-rule="evenodd" d="M625.045 211.33C622.922 210.626 620.736 209.854 618.984 208.41C615.223 205.309 612.927 204.389 608.246 204.435C603.963 204.478 599.826 204.465 596.149 202.034C592.87 199.868 591.041 195.032 591.831 191.231C592.406 188.463 593.236 186.26 594.944 183.993C597.352 180.794 597.814 178.496 596.956 174.496C595.931 169.718 595.777 165.634 597.182 160.896C597.904 158.451 599.613 156.672 601.534 155.073C599.834 155.931 598.093 156.946 596.492 158.132C590.289 162.728 583.859 176.97 582.594 186.964C581.331 196.956 578.804 204.767 582.594 209.878C586.384 214.991 598.674 216.024 609.24 217.057C619.806 218.092 634.385 215.564 637.317 211.888C637.886 211.176 638.335 209.546 638.65 207.318C634.981 210.944 630.225 213.053 625.045 211.33Z" fill="#283869"/>
<path fill-rule="evenodd" clip-rule="evenodd" d="M609.815 153.539C609.815 153.539 600.941 151.385 599.736 144.666C598.531 137.945 602.062 135.621 604.774 137.171C607.489 138.722 607.92 137.886 609.815 136.709C611.71 135.535 614.465 137.43 615.843 139.412C617.223 141.391 617.481 139.067 620.754 138.808C624.027 138.549 625.146 141.564 623.423 145.527C621.701 149.49 620.064 153.711 609.815 153.539Z" fill="#245394"/>
<path fill-rule="evenodd" clip-rule="evenodd" d="M619.43 149.761C617.132 150.352 618.494 147.381 618.118 146.35C617.518 146.379 617.295 147.377 617.093 147.81C616.662 148.746 615.685 149.373 614.65 149.36C613.219 149.344 613.02 147.779 612.408 146.82C612.151 146.416 612.03 146.43 611.87 146.915C611.694 147.449 611.864 148.073 611.367 148.49C610.449 149.26 608.924 148.385 608.211 147.767C607.433 147.091 607.111 145.98 606.281 145.325C606.129 145.483 606.066 145.693 606.023 145.902C605.817 146.87 605.877 148.709 604.302 148.373C602.968 148.085 602.07 145.904 601.641 144.794C601.146 143.514 600.68 141.989 600.684 140.607C600.684 140.005 600.721 139.426 600.804 138.841C600.851 138.502 600.966 137.767 601.132 137.485L601.122 137.479C599.843 138.605 599.073 140.97 599.736 144.666C600.763 150.381 607.333 152.794 609.275 153.387C609.614 153.49 609.969 153.543 610.322 153.543C618.397 153.566 620.908 150.75 622.491 147.58L622.477 147.594C622.477 147.594 620.253 149.547 619.43 149.761Z" fill="#283869"/>
<path fill-rule="evenodd" clip-rule="evenodd" d="M613.55 173.5C617.898 173.929 621.83 175.884 621.754 180.239L614.492 180.11C614.482 178.463 612.8 178.079 611.741 178.061C611.074 178.05 608.916 178.011 608.891 179.344C608.838 182.328 622.276 179.465 622.126 187.903C622.037 192.966 618.04 194.779 613.168 195.046L613.385 200.43L608.953 200.352L609.322 194.94C604.818 194.387 600.656 192.194 600.738 187.642L607.998 187.771L607.994 187.927C607.998 189.929 610.228 190.363 611.365 190.381C612.466 190.402 614.626 190.363 614.65 188.909C614.706 185.808 601.274 188.398 601.415 180.233C601.502 175.525 605.183 173.781 609.704 173.471L609.525 168.048L613.96 168.126L613.55 173.5Z" fill="#FFFFFE"/>
<path fill-rule="evenodd" clip-rule="evenodd" d="M603.354 150.344L602.553 154.574C602.553 154.574 604.82 156.755 610.991 156.755C617.165 156.755 620.495 154.572 620.495 154.572L620.093 150.755C620.093 150.755 611.648 152.894 603.354 150.344Z" fill="#0C0A21"/>
<path fill-rule="evenodd" clip-rule="evenodd" d="M681.998 43.0721H676.253V37.3267H673.022V43.0721H667.277V46.3042H673.022V52.0496H676.253V46.3042H681.998V43.0721Z" fill="#FFF6F7"/>
<path fill-rule="evenodd" clip-rule="evenodd" d="M457.067 100.88H451.325V95.1341H448.091V100.88H442.348V104.112H448.091V109.857H451.325V104.112H457.067V100.88Z" fill="#FFF6F7"/>
<path fill-rule="evenodd" clip-rule="evenodd" d="M722.673 143.329H716.931V137.584H713.697V143.329H707.952V146.562H713.697V152.307H716.931V146.562H722.673V143.329Z" fill="#FFF6F7"/>
<path fill-rule="evenodd" clip-rule="evenodd" d="M739.503 298.643H733.761V292.899H730.527V298.643H724.784V301.875H730.527V307.62H733.761V301.875H739.503V298.643Z" fill="#FFF6F7"/>
<path fill-rule="evenodd" clip-rule="evenodd" d="M531.714 5.74542H525.97V0H522.738V5.74542H516.993V8.97747H522.738V14.7229H525.97V8.97747H531.714V5.74542Z" fill="#FFF6F7"/>
<path fill-rule="evenodd" clip-rule="evenodd" d="M155.55 253.653H149.805V247.909H146.573V253.653H140.828V256.887H146.573V262.63H149.805V256.887H155.55V253.653Z" fill="#FFF6F7"/>
<path fill-rule="evenodd" clip-rule="evenodd" d="M235.795 435.533C259.906 447.044 254.192 445.159 258.105 446.2C262.016 447.241 285.092 448.697 285.092 448.697L287.64 458.601C287.64 458.601 259.534 457.063 255.703 456.182C251.87 455.301 235.746 449.179 235.746 449.179L235.795 435.533Z" fill="#FFFFFE"/>
<path fill-rule="evenodd" clip-rule="evenodd" d="M274.619 449.319C273.913 450.535 272.646 451.422 270.837 451.366C266.956 451.247 263.15 451.145 259.444 450.592C257.292 450.42 255.126 450.015 252.976 449.362C249.221 448.223 245.431 446.945 241.885 445.26C239.994 444.36 237.789 443.97 235.769 443.282L235.746 449.18C235.746 449.18 251.87 455.299 255.703 456.182C259.534 457.063 287.64 458.601 287.64 458.601L285.119 448.8C281.692 449.128 278.156 449.301 274.619 449.319Z" fill="#D9DCDF"/>
<path fill-rule="evenodd" clip-rule="evenodd" d="M232.494 552.225C232.494 552.225 231.472 555.209 231.461 557.515C231.451 559.821 231.617 562.273 232.326 562.854C233.738 564.012 251.627 564.162 253.083 562.509C254.539 560.856 253.568 558.182 249.78 557.256C245.718 556.266 245.15 556.689 242.594 555.718C240.037 554.747 240.655 551.874 240.655 551.874L232.494 552.225Z" fill="#0C0A21"/>
<path fill-rule="evenodd" clip-rule="evenodd" d="M193.254 548.866C193.254 548.866 191.236 551.287 190.404 553.439C189.575 555.591 188.856 557.942 189.31 558.735C190.219 560.322 206.879 566.837 208.827 565.811C210.778 564.786 210.823 561.942 207.614 559.728C204.171 557.353 203.491 557.548 201.448 555.728C199.405 553.909 201.007 551.445 201.007 551.445L193.254 548.866Z" fill="#0C0A21"/>
<path fill-rule="evenodd" clip-rule="evenodd" d="M232.377 476.19L208.273 478.868C208.273 478.868 229.829 513.332 231.461 518.866C233.092 524.402 230.86 554.49 230.86 554.49H241.774C241.774 554.49 244.117 518.956 243.581 516.276C243.045 513.599 232.377 476.19 232.377 476.19Z" fill="#0C0A21"/>
<path fill-rule="evenodd" clip-rule="evenodd" d="M231.461 477.974H203.945C203.945 477.974 200.729 486.412 202.204 492.841C203.676 499.268 204.659 512.929 204.524 515.34C204.39 517.751 190.954 549.893 190.954 549.893L200.974 553.618C200.974 553.618 214.792 522.973 216.13 519.492C217.469 516.009 231.461 477.974 231.461 477.974Z" fill="#0C0A21"/>
<path fill-rule="evenodd" clip-rule="evenodd" d="M230.295 421.042C228.049 421.194 225.737 420.964 223.651 420.516C222.889 420.354 222.119 420.079 221.395 419.723C221.161 422.489 220.382 428.941 218.093 431.368C218.093 431.368 218.407 434.629 224.119 435.432C229.833 436.235 231.014 431.995 231.014 431.995C231.014 431.995 229.911 425.116 230.295 421.042Z" fill="#E77F66"/>
<path fill-rule="evenodd" clip-rule="evenodd" d="M218.112 431.473L218.171 431.709L218.181 431.74L218.317 432.095L218.325 432.112L218.565 432.555L218.606 432.619C218.818 432.943 219.118 433.298 219.534 433.65L219.602 433.709C219.814 433.88 220.054 434.048 220.327 434.21L220.438 434.272C220.725 434.436 221.039 434.594 221.399 434.74C221.758 433.309 222.487 431.962 223.589 430.884C225.542 428.976 227.93 428.029 230.5 427.939C230.277 425.73 230.106 423.048 230.295 421.042C228.049 421.194 225.737 420.964 223.651 420.516C222.889 420.354 222.119 420.079 221.395 419.723C221.161 422.489 220.382 428.941 218.093 431.368L218.105 431.44L218.112 431.473Z" fill="#D85C48"/>
<path fill-rule="evenodd" clip-rule="evenodd" d="M221.019 404.594C221.019 404.594 230.591 402.237 231.991 404.594C233.389 406.949 232.948 410.631 233.5 412.288C234.052 413.945 236.317 415.769 236.537 416.43C236.758 417.093 234.88 418.253 234.605 418.75C234.327 419.247 233.133 424.549 231.439 425.654C229.745 426.758 221.095 423.224 219.107 418.972C217.12 414.719 218.424 405.845 221.019 404.594Z" fill="#E77F66"/>
<path fill-rule="evenodd" clip-rule="evenodd" d="M231.014 431.032C231.014 431.032 224.294 434.368 218.838 430.358C218.838 430.358 208.453 432.173 207.178 432.693C206.123 433.122 208.899 447.908 207.694 455.342C206.489 462.775 201.668 480.788 201.668 480.788C201.668 480.788 214.389 490.564 236.216 484.404C236.216 484.404 236.929 459.145 236.695 452.128C236.354 441.861 236.282 435.789 236.282 435.789C236.282 435.789 233.787 433.227 231.014 431.032Z" fill="#FFFFFE"/>
<path fill-rule="evenodd" clip-rule="evenodd" d="M215.12 471.905C214.169 468.001 213.502 464.188 214.188 460.151C214.929 455.777 211.794 450.015 211.207 445.566C210.581 440.806 210.092 437.574 206.965 434.941C207.176 439.428 208.628 449.58 207.694 455.342C206.489 462.775 201.668 480.788 201.668 480.788C201.668 480.788 209.747 486.954 224.037 486.379C218.405 482.972 216.697 478.381 215.12 471.905Z" fill="#D9DCDF"/>
<path fill-rule="evenodd" clip-rule="evenodd" d="M225.135 405.945C225.135 405.945 225.316 408.276 223.918 410.779C223.3 411.882 225.983 415.015 225.135 416.346C224.571 417.231 223.817 416.964 223.205 415.138C222.996 414.512 222.339 414.054 221.74 413.762C219.473 412.656 218.775 416.155 220.799 417.296C222.216 418.095 221.185 421.73 221.185 421.73C219.571 422.857 214.49 421.175 215.225 417.442C215.695 415.064 215.896 414.161 215.083 413.539C213.615 412.413 211.773 409.393 214.385 407.023C217.982 403.758 214.894 402.528 218.918 401.723C222.945 400.916 226.121 403.497 225.135 405.945Z" fill="#0C0A21"/>
<path fill-rule="evenodd" clip-rule="evenodd" d="M218.183 403.61C218.446 402.752 220.068 401.705 220.871 401.161C222.111 400.321 223.526 399.82 225.029 399.51C226.519 399.2 228.098 399.21 229.574 399.563C230.856 399.869 231.911 400.493 233.225 400.705C234.44 400.898 235.656 400.9 236.547 400.216C236.779 401.037 236.699 402.66 236.572 403.212C236.305 404.38 235.477 405.397 234.724 406.419C232.679 409.19 227.394 410.534 223.789 408.855C222.048 408.044 220.483 407.339 219.682 405.756C219.222 404.845 218.859 404.397 218.183 403.61Z" fill="#0C0A21"/>
<path fill-rule="evenodd" clip-rule="evenodd" d="M193.87 538.299C193.1 538.523 192.283 538.669 191.4 538.702C191.038 538.714 190.683 538.737 190.334 538.759C188.854 538.849 187.456 538.938 185.928 538.377C183.072 537.33 181.621 535.48 180.92 531.993C180.305 528.911 181.107 525.687 183.183 522.917C184.13 521.652 185.14 520.942 186.308 520.12L186.663 519.87C188.201 518.777 188.94 516.942 189.657 515.168L189.776 514.872C190.076 514.131 190.314 513.412 190.564 512.65C190.737 512.129 190.909 511.603 191.104 511.069C193.703 503.95 201.259 500.995 207.144 499.773L207.384 500.921C201.795 502.087 194.619 504.857 192.207 511.471C192.016 511.993 191.845 512.506 191.677 513.018C191.433 513.765 191.178 514.537 190.864 515.311L190.745 515.607C190.002 517.449 189.162 519.537 187.343 520.827L186.983 521.079C185.852 521.876 184.959 522.504 184.123 523.619C182.249 526.12 181.52 529.012 182.07 531.763C182.694 534.87 183.85 536.365 186.333 537.277C187.628 537.751 188.848 537.675 190.262 537.589C190.62 537.566 190.985 537.544 191.357 537.529C193.853 537.439 195.757 536.322 197.777 535.137C198.953 534.449 200.169 533.734 201.538 533.211C204.491 532.079 206.579 529.979 208.111 526.599L208.221 526.355C210.197 521.989 211.759 518.541 215.332 515.104L215.853 514.603C218.483 512.083 220.222 510.42 220.542 506.732C220.855 503.163 219.596 499.578 217.481 498.016C216.054 496.964 214.321 496.843 212.342 497.642L211.903 496.556C214.878 495.352 216.956 496.17 218.177 497.073C221.009 499.165 221.994 503.599 221.711 506.833C221.351 510.96 219.282 512.942 216.662 515.451L216.145 515.948C212.734 519.231 211.215 522.589 209.289 526.839L209.18 527.081C207.513 530.761 205.218 533.059 201.957 534.305C200.678 534.796 199.506 535.484 198.37 536.149C196.966 536.973 195.529 537.815 193.87 538.299Z" fill="#FFFFFE"/>
<path fill-rule="evenodd" clip-rule="evenodd" d="M225.31 498.453C219.382 505.217 209.412 499.742 211.938 491.11C212.114 490.508 212.426 489.94 212.839 489.467C218.767 482.703 228.737 488.178 226.213 496.81C226.037 497.412 225.725 497.981 225.31 498.453ZM302.02 443.783L217.457 468.408C214.98 469.128 212.79 470.596 211.184 472.613L200.619 485.878C198.095 489.048 197.266 493.25 198.399 497.141L199.925 502.377C201.058 506.268 204.01 509.367 207.842 510.687L223.875 516.207C226.312 517.046 228.95 517.11 231.424 516.389L315.988 491.765C322.605 489.839 326.406 482.913 324.48 476.295L317.487 452.276C315.561 445.658 308.636 441.855 302.02 443.783Z" fill="#245394"/>
<path fill-rule="evenodd" clip-rule="evenodd" d="M242.123 485.169L243.125 484.878C244.146 484.58 244.801 484.147 245.094 483.576C245.386 483.009 245.437 482.2 245.246 481.157L245.131 480.668C244.928 479.976 244.602 479.541 244.148 479.358C243.593 479.137 242.787 479.18 241.725 479.488L241.134 479.66L242.123 485.169ZM243.821 494.554L244.969 494.219C246.004 493.917 246.677 493.457 246.985 492.839C247.293 492.223 247.347 491.35 247.141 490.223C247.09 489.933 247.028 489.662 246.954 489.414C246.733 488.65 246.423 488.116 246.02 487.816C245.495 487.418 244.704 487.375 243.653 487.681L242.626 487.979L243.821 494.554ZM240.345 498.613L236.623 478.003L241.663 476.535C242.405 476.319 243.074 476.176 243.674 476.093C244.275 476.015 244.862 476.02 245.437 476.106C246.012 476.19 246.509 476.379 246.93 476.672C247.349 476.962 247.718 477.393 248.032 477.966C248.217 478.303 248.373 478.687 248.496 479.112C248.585 479.42 248.659 479.74 248.714 480.083C249.135 482.576 248.408 484.262 246.536 485.139C248.687 484.888 250.102 485.929 250.782 488.26C250.864 488.541 250.931 488.841 250.989 489.155C251.365 491.165 251.147 492.818 250.332 494.114C249.521 495.412 248.17 496.334 246.279 496.886L240.345 498.613Z" fill="#FFFFFE"/>
<path fill-rule="evenodd" clip-rule="evenodd" d="M256.288 481.514L257.276 481.227C258.274 480.937 258.939 480.496 259.271 479.9C259.604 479.307 259.676 478.475 259.487 477.406C259.44 477.147 259.382 476.911 259.319 476.695C259.138 476.04 258.877 475.578 258.536 475.313C258.085 474.956 257.383 474.911 256.432 475.18L255.212 475.535L256.288 481.514ZM254.432 494.51L250.71 473.902L255.691 472.451C256.535 472.206 257.288 472.04 257.953 471.956C258.616 471.872 259.247 471.878 259.842 471.976C260.436 472.071 260.949 472.272 261.378 472.574C261.817 472.884 262.189 473.325 262.495 473.898C262.684 474.245 262.838 474.642 262.959 475.085C263.045 475.383 263.119 475.697 263.181 476.028C263.419 477.319 263.409 478.443 263.156 479.397C262.899 480.352 262.361 481.167 261.538 481.845L266.312 491.052L262.345 492.206L258.189 483.603L256.744 484.024L258.423 493.348L254.432 494.51Z" fill="#FFFFFE"/>
<path fill-rule="evenodd" clip-rule="evenodd" d="M271.1 482.108L273.537 481.399L270.831 473.5L271.1 482.108ZM267.482 490.712L267.702 468.954L272.042 467.689L279.686 487.157L275.982 488.235L274.395 483.857L271.176 484.796L271.256 489.613L267.482 490.712Z" fill="#FFFFFE"/>
<path fill-rule="evenodd" clip-rule="evenodd" d="M281.663 486.582L277.939 465.972L280.725 465.161L287.223 474.72L285.258 463.841L288.576 462.876L292.301 483.484L289.646 484.258L282.983 474.042L285.063 485.592L281.663 486.582Z" fill="#FFFFFE"/>
<path fill-rule="evenodd" clip-rule="evenodd" d="M298.75 478.584L299.618 478.332C299.949 478.235 300.232 478.124 300.47 477.999C300.708 477.874 300.903 477.746 301.06 477.617C301.211 477.49 301.331 477.321 301.417 477.114C301.499 476.907 301.558 476.718 301.597 476.545C301.634 476.373 301.641 476.134 301.618 475.833C301.595 475.529 301.569 475.264 301.538 475.038C301.507 474.812 301.452 474.492 301.376 474.077L299.912 465.948C299.83 465.492 299.741 465.093 299.643 464.757C299.569 464.533 299.497 464.336 299.431 464.163C299.253 463.728 298.971 463.457 298.585 463.35C298.202 463.243 297.643 463.297 296.912 463.51L296.068 463.757L298.75 478.584ZM295.268 482.621L291.543 462.011L296.368 460.607C297.623 460.241 298.69 460.06 299.571 460.06C300.452 460.06 301.193 460.26 301.793 460.656C302.392 461.054 302.866 461.609 303.213 462.329C303.392 462.703 303.554 463.139 303.698 463.629C303.831 464.087 303.95 464.601 304.055 465.171L305.396 472.607C305.683 474.196 305.722 475.525 305.507 476.59C305.295 477.656 304.761 478.57 303.905 479.334C303.051 480.098 301.817 480.714 300.199 481.184L295.268 482.621Z" fill="#FFFFFE"/>
<path fill-rule="evenodd" clip-rule="evenodd" d="M219.67 498.642C219.463 498.987 219.216 499.305 218.929 499.595C220.138 501.428 220.775 504.081 220.543 506.732C220.415 508.184 219.647 510.061 218.674 511.527C218.029 512.496 217.223 513.202 216.713 513.796C217.075 513.964 217.436 514.143 217.8 514.315C218.255 513.761 218.984 513.131 219.578 512.235C220.647 510.621 221.567 508.492 221.711 506.833C221.935 504.262 221.341 500.95 219.67 498.642Z" fill="#FFFFFE"/>
<path fill-rule="evenodd" clip-rule="evenodd" d="M292.063 447.502C290.681 445.707 287.767 445.791 285.971 446.551C284.521 447.165 284.437 448.742 284.23 451.05C284.09 452.609 284.024 454.079 284.435 454.555C286.291 455.919 286.347 450.707 286.652 449.391C286.652 449.391 285.938 454.892 286.907 455.366C288.722 456.196 288.654 451.11 288.86 449.843C288.523 451.048 288.486 453.28 288.73 453.611C288.743 454.594 289.492 454.401 289.675 454.29C290.601 453.73 290.597 449.568 290.597 449.568C290.597 450.307 290.026 453.028 291.219 452.473C291.995 452.112 292.04 450.933 292.19 450.303C292.481 449.091 292.375 447.908 292.063 447.502Z" fill="#E77F66"/>
<path fill-rule="evenodd" clip-rule="evenodd" d="M212.853 471.689C214.742 471.611 217.04 471.97 218.986 471.97C219.875 471.97 220.793 471.841 221.674 471.79C222.23 471.757 223.364 471.568 223.688 472.19C224.045 472.872 222.928 473.116 222.489 473.21C221.852 473.35 220.536 473.264 220.415 474.114C220.241 475.352 222.557 475.683 223.46 476.077C224.296 476.445 226.515 477.227 225.062 478.046C224.08 478.599 222.017 477.338 221.183 477.001C222.28 477.305 223.236 477.703 224.218 478.266C224.786 478.592 225.905 479.044 225.905 479.683C225.905 480.619 223.832 480.059 223.32 479.837C222.101 479.307 221.857 479.169 221.013 478.56C221.883 479.022 225.08 480.377 224.035 481.484C223.394 482.159 220.898 480.258 219.902 479.853C220.45 480.358 222.089 480.623 221.955 481.691C221.887 482.227 220.959 481.8 220.516 481.558C219.89 481.217 219.329 480.718 218.699 480.42C218.206 480.184 217.878 479.894 217.344 479.514C216.214 478.712 215.188 478.518 214.211 477.471C213.295 476.492 212.441 475.502 211.492 474.693C213.311 474.022 211.457 472.664 212.853 471.689Z" fill="#E77F66"/>
<path fill-rule="evenodd" clip-rule="evenodd" d="M215.617 471.19L212.938 477.381C212.938 477.381 185.283 468.408 186.581 461.147C187.719 454.771 203.809 433.411 207.316 432.646C212.026 431.615 213.913 442.845 211.207 445.566C205.501 451.305 197.36 459.379 198.03 460.679C198.699 461.978 215.617 471.19 215.617 471.19Z" fill="#FFFFFE"/>
<path fill-rule="evenodd" clip-rule="evenodd" d="M84.5551 326.335C77.8803 326.335 72.4722 320.926 72.4722 314.253C72.4722 307.579 77.8803 302.168 84.5551 302.168C91.2258 302.168 96.6359 307.579 96.6359 314.253C96.6359 320.926 91.2258 326.335 84.5551 326.335ZM107.415 317.277C107.544 316.285 107.635 315.279 107.635 314.253C107.635 313.224 107.544 312.22 107.415 311.228L102.752 310.497C102.607 309.784 102.407 309.092 102.182 308.411L105.879 305.427C105.099 303.542 104.064 301.795 102.839 300.201L98.414 301.908C97.9376 301.374 97.4305 300.866 96.8967 300.39L98.6029 295.965C97.0096 294.739 95.2624 293.704 93.3776 292.924L90.3943 296.622C89.7127 296.396 89.0207 296.197 88.3083 296.051L87.5774 291.388C86.5857 291.259 85.5817 291.168 84.553 291.168C83.5265 291.168 82.5225 291.259 81.5287 291.388L80.7999 296.051C80.0874 296.197 79.3934 296.396 78.7138 296.622L75.7306 292.924C73.8458 293.704 72.0985 294.739 70.5053 295.965L72.2115 300.39C71.6756 300.866 71.1705 301.374 70.6942 301.908L66.2696 300.201C65.0438 301.795 64.0091 303.542 63.2288 305.427L66.9245 308.411C66.7008 309.092 66.5016 309.784 66.3538 310.497L61.6931 311.228C61.5617 312.22 61.4734 313.224 61.4734 314.253C61.4734 315.279 61.5617 316.285 61.6931 317.277L66.3538 318.006C66.5016 318.721 66.7008 319.413 66.9245 320.092L63.2288 323.078C64.0091 324.961 65.0438 326.708 66.2696 328.302L70.6942 326.596C71.1705 327.129 71.6756 327.637 72.2115 328.113L70.5053 332.538C72.0985 333.764 73.8458 334.801 75.7306 335.581L78.7138 331.883C79.3934 332.109 80.0874 332.306 80.7999 332.454L81.5287 337.115C82.5225 337.244 83.5265 337.337 84.553 337.337C85.5817 337.337 86.5857 337.244 87.5774 337.115L88.3083 332.454C89.0207 332.306 89.7127 332.107 90.3943 331.883L93.3776 335.581C95.2624 334.801 97.0096 333.764 98.6029 332.538L96.8967 328.113C97.4305 327.637 97.9376 327.129 98.414 326.596L102.839 328.302C104.064 326.708 105.099 324.961 105.879 323.078L102.182 320.092C102.407 319.413 102.607 318.721 102.752 318.006L107.415 317.277Z" fill="#EB8E3E"/>
<path fill-rule="evenodd" clip-rule="evenodd" d="M84.553 322.7C79.8882 322.7 76.1063 318.918 76.1063 314.253C76.1063 309.585 79.8882 305.805 84.553 305.805C89.2199 305.805 93.0018 309.585 93.0018 314.253C93.0018 318.918 89.2199 322.7 84.553 322.7ZM84.5551 300.663C77.0508 300.663 70.9672 306.747 70.9672 314.253C70.9672 321.756 77.0508 327.84 84.5551 327.84C92.0574 327.84 98.1409 321.756 98.1409 314.253C98.1409 306.747 92.0574 300.663 84.5551 300.663Z" fill="#0C0A21"/>
<path fill-rule="evenodd" clip-rule="evenodd" d="M683.415 112.861C676.742 112.861 671.332 107.452 671.332 100.779C671.332 94.1053 676.742 88.6946 683.415 88.6946C690.088 88.6946 695.498 94.1053 695.498 100.779C695.498 107.452 690.088 112.861 683.415 112.861ZM706.277 103.804C706.406 102.812 706.497 101.806 706.497 100.779C706.497 99.7501 706.406 98.746 706.277 97.7542L701.614 97.0232C701.468 96.3107 701.269 95.6187 701.043 94.937L704.741 91.9534C703.961 90.0683 702.926 88.3209 701.698 86.7275L697.276 88.4359C696.797 87.9 696.292 87.3928 695.756 86.9164L697.465 82.4933C695.869 81.2654 694.122 80.2305 692.239 79.4502L689.254 83.1484C688.574 82.9225 687.883 82.7233 687.17 82.5775L686.439 77.9163C685.447 77.7849 684.441 77.6945 683.415 77.6945C682.386 77.6945 681.382 77.7849 680.391 77.9163L679.66 82.5775C678.947 82.7233 678.255 82.9225 677.574 83.1484L674.59 79.4502C672.706 80.2305 670.96 81.2654 669.365 82.4933L671.073 86.9164C670.537 87.3928 670.03 87.9 669.554 88.4359L665.131 86.7275C663.904 88.3209 662.869 90.0683 662.089 91.9534L665.786 94.937C665.56 95.6187 665.361 96.3107 665.216 97.0232L660.553 97.7542C660.423 98.746 660.333 99.7501 660.333 100.779C660.333 101.806 660.423 102.812 660.553 103.804L665.216 104.533C665.361 105.247 665.56 105.939 665.786 106.619L662.089 109.604C662.869 111.487 663.904 113.235 665.131 114.83L669.554 113.122C670.032 113.658 670.537 114.163 671.073 114.639L669.365 119.064C670.96 120.292 672.706 121.327 674.59 122.108L677.574 118.409C678.255 118.635 678.947 118.834 679.66 118.98L680.391 123.641C681.382 123.773 682.386 123.863 683.415 123.863C684.441 123.863 685.447 123.773 686.439 123.641L687.17 118.98C687.883 118.834 688.574 118.635 689.254 118.409L692.239 122.108C694.122 121.327 695.869 120.292 697.465 119.064L695.756 114.639C696.292 114.163 696.797 113.658 697.276 113.122L701.698 114.83C702.926 113.235 703.961 111.487 704.741 109.604L701.043 106.619C701.269 105.939 701.468 105.247 701.614 104.533L706.277 103.804Z" fill="#EB8E3E"/>
<path fill-rule="evenodd" clip-rule="evenodd" d="M683.415 109.227C678.75 109.227 674.968 105.444 674.968 100.779C674.968 96.1136 678.75 92.3312 683.415 92.3312C688.08 92.3312 691.861 96.1136 691.861 100.779C691.861 105.444 688.08 109.227 683.415 109.227ZM683.415 87.1895C675.91 87.1895 669.827 93.2737 669.827 100.779C669.827 108.284 675.91 114.366 683.415 114.366C690.919 114.366 697.001 108.284 697.001 100.779C697.001 93.2737 690.919 87.1895 683.415 87.1895Z" fill="#0C0A21"/>
<path fill-rule="evenodd" clip-rule="evenodd" d="M420.934 70.5384C414.097 68.0908 410.537 60.563 412.986 53.7252C415.433 46.8853 422.958 43.3268 429.797 45.7744C436.634 48.2221 440.192 55.7498 437.745 62.5877C435.298 69.4255 427.771 72.9861 420.934 70.5384ZM447.68 69.6411C448.177 68.6719 448.639 67.676 449.015 66.6226C449.393 65.5692 449.668 64.5076 449.898 63.4439L445.389 60.984C445.502 60.1996 445.551 59.4172 445.57 58.6369L450.454 56.9367C450.345 54.719 449.925 52.5486 449.253 50.4664L444.094 50.5917C443.802 49.8689 443.469 49.1646 443.096 48.4808L446.467 44.5732C445.284 42.7313 443.874 41.029 442.229 39.5382L437.815 42.2323C437.201 41.7539 436.565 41.296 435.887 40.8832L436.85 35.838C435.881 35.3411 434.885 34.8811 433.832 34.5033C432.778 34.1255 431.715 33.8503 430.651 33.6203L428.194 38.1296C427.409 38.0167 426.627 37.9674 425.847 37.9489L424.145 33.0659C421.928 33.1727 419.759 33.5936 417.675 34.2651L417.803 39.4253C417.08 39.7169 416.376 40.0516 415.69 40.4233L411.783 37.0516C409.941 38.2343 408.241 39.6471 406.75 41.2898L409.444 45.7046C408.964 46.3186 408.506 46.9551 408.095 47.6328L403.049 46.6718C402.552 47.6389 402.092 48.6369 401.714 49.6903C401.338 50.7416 401.061 51.8053 400.831 52.8689L405.34 55.3289C405.229 56.1133 405.18 56.8936 405.161 57.6739L400.277 59.3762C400.386 61.5938 400.805 63.7643 401.478 65.8464L406.636 65.7191C406.929 66.444 407.262 67.1462 407.635 67.8321L404.264 71.7397C405.447 73.5816 406.857 75.2818 408.502 76.7746L412.916 74.0785C413.53 74.559 414.167 75.0169 414.842 75.4276L413.881 80.4749C414.85 80.9718 415.846 81.4317 416.899 81.8096C417.953 82.1874 419.014 82.4625 420.08 82.6925L422.537 78.1833C423.322 78.2941 424.104 78.3455 424.884 78.364L426.584 83.2469C428.802 83.1381 430.972 82.7192 433.054 82.0457L432.928 76.8876C433.651 76.5939 434.355 76.2613 435.039 75.8896L438.946 79.2613C440.788 78.0765 442.49 76.6658 443.981 75.0231L441.287 70.6062C441.767 69.9922 442.223 69.3577 442.636 68.6801L447.68 69.6411Z" fill="#245394"/>
<path fill-rule="evenodd" clip-rule="evenodd" d="M422.266 66.8136C417.486 65.101 414.998 59.8382 416.71 55.0579C418.421 50.2755 423.683 47.7888 428.463 49.4993C433.245 51.2118 435.733 56.4747 434.021 61.255C432.31 66.0353 427.046 68.5241 422.266 66.8136ZM430.35 44.2323C422.66 41.4808 414.195 45.4828 411.444 53.1728C408.691 60.8628 412.692 69.3269 420.381 72.0805C428.071 74.8321 436.534 70.83 439.287 63.14C442.038 55.4501 438.037 46.9859 430.35 44.2323Z" fill="#0C0A21"/>
<defs>
<linearGradient id="paint0_linear_0_20" x1="646.162" y1="54.1544" x2="487.019" y2="54.1544" gradientUnits="userSpaceOnUse">
<stop stop-color="#8C32F0"/>
<stop offset="1" stop-color="#E73587"/>
</linearGradient>
<linearGradient id="paint1_linear_0_20" x1="609.671" y1="90.6495" x2="523.512" y2="90.6495" gradientUnits="userSpaceOnUse">
<stop stop-color="#8C32F0"/>
<stop offset="1" stop-color="#E73587"/>
</linearGradient>
<linearGradient id="paint2_linear_0_20" x1="580.276" y1="120.048" x2="552.907" y2="120.048" gradientUnits="userSpaceOnUse">
<stop stop-color="#8C32F0"/>
<stop offset="1" stop-color="#E73587"/>
</linearGradient>
<linearGradient id="paint3_linear_0_20" x1="656.358" y1="217.137" x2="84.553" y2="217.137" gradientUnits="userSpaceOnUse">
<stop stop-color="#8C32F0"/>
<stop offset="1" stop-color="#E73587"/>
</linearGradient>
</defs>
</svg>
