<svg width="45" height="48" viewBox="0 0 45 48" fill="none" xmlns="http://www.w3.org/2000/svg">
<path fill-rule="evenodd" clip-rule="evenodd" d="M33.0467 0C29.7684 0 27.12 2.65209 27.12 5.925V20.9875C27.12 27.7103 21.6779 33.1375 14.9652 33.1375C8.24366 33.1375 2.81328 27.6997 2.81328 20.989V20.9875V20.9807C2.80962 20.2072 2.18123 19.5813 1.40664 19.5813C0.6298 19.5813 0 20.2109 0 20.9875C0 32.9109 8.91706 40.4688 18.7333 40.4688C29.9274 40.4688 38.9734 31.4114 38.9734 20.2344V5.925C38.9733 2.64731 36.3197 0 33.0467 0ZM41.7866 6.02503H43.5934C44.3702 6.02503 45 6.65466 45 7.43128C45 8.20791 44.3702 8.83753 43.5934 8.83753H41.7866V6.02503ZM14.9651 30.325C9.81581 30.325 5.62647 26.1369 5.62647 20.9807H5.62656V20.9674C5.62421 20.4818 5.53813 20.0155 5.38368 19.5813H20.9933C22.2135 19.5813 23.3506 19.2214 24.3066 18.6042V20.9875C24.3066 26.1362 20.1161 30.325 14.9651 30.325ZM21.5466 45.1875H26.2667C27.0435 45.1875 27.6733 45.8171 27.6733 46.5938C27.6733 47.3704 27.0435 48 26.2667 48H18.7333C17.9565 48 17.3267 47.3704 17.3267 46.5938C17.3267 45.8171 17.9565 45.1875 18.7333 45.1875V43.2812C19.6812 43.2812 20.6202 43.224 21.5466 43.1123V45.1875Z" fill="white"/>
</svg>
